<?xml version="1.0" encoding="utf-8"?>
<!-- Generator: Adobe Illustrator 18.0.0, SVG Export Plug-In . SVG Version: 6.00 Build 0)  -->
<!DOCTYPE svg PUBLIC "-//W3C//DTD SVG 1.1//EN" "http://www.w3.org/Graphics/SVG/1.1/DTD/svg11.dtd">
<svg version="1.1" id="Layer_1" xmlns="http://www.w3.org/2000/svg" xmlns:xlink="http://www.w3.org/1999/xlink" x="0px" y="0px"
	 viewBox="0 0 213 144" enable-background="new 0 0 213 144" xml:space="preserve">
<g>
	<path fill="#EC1C24" d="M8.3,105.1l2.2,4.1H6.2L8.3,105.1L8.3,105.1z M0.2,113.5h3.7l1-2h6.8l1,2h3.7l-6-11H6.1L0.2,113.5
		L0.2,113.5z"/>
	<path fill="#EC1C24" d="M17.1,106.5c0-3.2,1.8-3.9,4.8-3.9h3.9c4.8,0,5.4,1,5.4,4.1h-3.3v-0.3c0-0.8-0.6-1-1.6-1h-3.7
		c-1.8,0-2.1,0.9-2.1,2.2v1.2c0,1.6,0.3,2.2,2,2.2H26c1.5,0,2-0.2,2-1.5h3.3v1c0,1.9-0.6,3.3-4,3.3h-5.4c-3.1,0-4.8-0.8-4.8-4
		L17.1,106.5L17.1,106.5z"/>
	<path fill="#EC1C24" d="M36.3,107.5c0-1.4,0.3-2.2,2.1-2.2h3.9c1.8,0,2.1,0.9,2.1,2.2v1.2c0,1.6-0.3,2.2-2,2.2h-4.3
		c-1.6,0-2-0.6-2-2.2L36.3,107.5L36.3,107.5z M32.8,109.7c0,3.2,1.8,4,4.9,4H43c3,0,4.8-0.8,4.8-4v-3.2c0-3.2-1.8-3.9-4.8-3.9h-5.4
		c-3.1,0-4.9,0.8-4.9,3.9V109.7L32.8,109.7z"/>
	<path fill="#EC1C24" d="M49.6,102.6h3.3v6.3c0,1.4,0.5,2,1.9,2h3.3c1.4,0,1.9-0.5,1.9-2v-6.3h3.4v7.1c0,2.7-1.4,4-4.5,4h-4.8
		c-3.1,0-4.5-1.3-4.5-4L49.6,102.6L49.6,102.6z"/>
	<path fill="#EC1C24" d="M65.1,109.9h3.4c0,1.2,0.4,1.3,1.4,1.3H74c0.7,0,1.4,0,1.4-0.9c0-0.9-0.4-1-4.8-1c-5,0-5.6-0.6-5.6-3.3
		c0-2,0.2-3.5,4.4-3.5h4.7c3.9,0,4.3,1.3,4.3,3.2v0.3h-3.3c0-0.8-0.1-1.1-1.6-1.1h-3.7c-0.8,0-1.3,0.3-1.3,0.9c0,0.9,0.4,1,4,0.9
		c5.2,0,6.4,0.3,6.4,3.5c0,2.9-1,3.4-5.5,3.4h-4.1c-3.1,0-4.3-0.6-4.3-3L65.1,109.9L65.1,109.9z"/>
	<polygon fill="#EC1C24" points="79.8,102.6 92.6,102.6 92.6,105.3 87.9,105.3 87.9,113.5 84.6,113.5 84.6,105.3 79.8,105.3 	"/>
	<polygon fill="#EC1C24" points="94,102.6 97.3,102.6 97.3,113.5 94,113.5 	"/>
	<path fill="#EC1C24" d="M99.2,106.5c0-3.2,1.8-3.9,4.9-3.9h3.9c4.8,0,5.4,1,5.4,4.1H110v-0.3c0-0.8-0.6-1-1.6-1h-3.6
		c-1.8,0-2.1,0.9-2.1,2.2v1.2c0,1.6,0.3,2.2,2,2.2h3.6c1.5,0,2-0.2,2-1.5h3.3v1c0,1.9-0.7,3.3-4,3.3h-5.4c-3.1,0-4.9-0.8-4.9-4
		L99.2,106.5L99.2,106.5z"/>
	<polygon fill="#EC1C24" points="122.6,102.6 134.6,102.6 134.6,105.1 126,105.1 126,106.9 134.1,106.9 134.1,109.2 126,109.2 
		126,110.9 134.8,110.9 134.8,113.5 122.6,113.5 	"/>
	<polygon fill="#EC1C24" points="136.5,102.6 141.7,102.6 148,110.5 148.1,110.5 148.1,102.6 151.4,102.6 151.4,113.5 146.2,113.5 
		139.9,105.6 139.9,105.6 139.9,113.5 136.5,113.5 	"/>
	<polygon fill="#EC1C24" points="153.4,102.6 165.3,102.6 165.3,105.1 156.7,105.1 156.7,106.9 164.9,106.9 164.9,109.2 
		156.7,109.2 156.7,110.9 165.5,110.9 165.5,113.5 153.4,113.5 	"/>
	<path fill="#EC1C24" d="M170.6,105.3h5.2c1,0,1.5,0.2,1.5,1.1v0.3c0,0.8-0.3,1.1-1.3,1.1h-5.5L170.6,105.3L170.6,105.3z
		 M167.2,113.5h3.4v-2.8h5.3c1,0,1.4,0.3,1.4,1.5v1.3h3.4v-1.9c0-1.8-0.9-2.3-1.9-2.4l0,0c1.5-0.3,1.9-1.2,1.9-2.6v-0.7
		c0-2-0.7-3.2-3.3-3.2h-10.1L167.2,113.5L167.2,113.5z"/>
	<path fill="#EC1C24" d="M182.3,106.5c0-3.2,1.8-3.9,4.8-3.9h5c3.8,0,4.3,1.4,4.3,3.5v0.3h-3.3c0-1.1-0.6-1.3-1.7-1.3h-3.7
		c-1.7,0-2.1,0.4-2.1,2.3v1.4c0,1.9,0.4,2.3,2.1,2.3h3.6c0.9,0,1.8-0.1,1.8-1.2v-0.3H189v-2.3h7.5v3.1c0,3.2-1.6,3.3-5.4,3.3h-4
		c-3.1,0-4.8-0.8-4.8-4L182.3,106.5L182.3,106.5z"/>
	<polygon fill="#EC1C24" points="203.4,109.8 197.3,102.6 201.3,102.6 205.1,107.1 208.7,102.6 212.7,102.6 206.7,109.8 
		206.7,113.5 203.4,113.5 	"/>
	<path fill="#EC1C24" d="M79.1,44.5l8.1,19.6H71.2L79.1,44.5L79.1,44.5z M48.9,86.2h14l3.7-9.2h25.3l3.9,9.2h13.9L87.2,31.9H71
		L48.9,86.2L48.9,86.2z"/>
	<polygon fill="#EC1C24" points="114.1,31.9 158.6,31.9 158.6,44.5 126.5,44.5 126.5,53.2 156.9,53.2 156.9,64.5 126.5,64.5 
		126.5,73.1 159.3,73.1 159.3,86.2 114.1,86.2 	"/>
	<polygon fill="#EC1C24" points="0,95.1 0,96 213,96 213,95.1 	"/>
	<path fill="#EC1C24" d="M21.5,31.9c-0.3,0.4-6.6,11.2-6.6,27.3c0,16.1,6.4,26.9,6.6,27.4c1,1.6,3.1,2.2,4.8,1.2
		c1.7-1,2.2-3.2,1.3-4.8c-0.1-0.1-5.6-9.8-5.6-23.9s5.5-23.7,5.6-23.8c1-1.6,0.4-3.8-1.2-4.8C24.6,29.8,22.5,30.3,21.5,31.9
		L21.5,31.9z"/>
	<path fill="#EC1C24" d="M34.8,31.8c-0.3,0.4-6.9,11.2-6.9,27.3c0,16.3,6.6,27.2,6.8,27.6c1,1.6,3.2,2.1,4.8,1.1
		c1.6-1,2.1-3.2,1.2-4.8c-0.1-0.1-5.8-9.8-5.8-23.9s5.8-23.6,5.8-23.7c1-1.6,0.5-3.7-1.1-4.8C38.1,29.8,35.9,30.2,34.8,31.8
		L34.8,31.8z"/>
	<path fill="#EC1C24" d="M8.6,31.8C8.3,32.2,2,41.9,2,59.2s6.3,27.1,6.6,27.5c1,1.6,3.2,2,4.8,1c1.6-1,2-3.2,1-4.8
		c-0.1-0.1-5.5-8.7-5.5-23.8c0-15,5.3-23.4,5.4-23.5c1-1.6,0.6-3.7-1-4.8C11.8,29.9,9.7,30.3,8.6,31.8L8.6,31.8z"/>
	<path fill="#EC1C24" d="M192,31.9c0.3,0.4,6.6,11.2,6.6,27.3c0,16.1-6.4,26.9-6.6,27.4c-0.9,1.6-3.1,2.2-4.8,1.2
		c-1.7-1-2.2-3.2-1.3-4.8c0-0.1,5.6-9.8,5.6-23.9s-5.5-23.7-5.6-23.8c-0.9-1.6-0.4-3.8,1.2-4.8C188.9,29.8,191,30.3,192,31.9
		L192,31.9z"/>
	<path fill="#EC1C24" d="M178.6,31.8c0.3,0.4,7,11.2,7,27.3c0,16.3-6.6,27.2-6.9,27.6c-1,1.6-3.2,2.1-4.8,1.1
		c-1.6-1-2.2-3.2-1.2-4.8c0-0.1,5.8-9.8,5.8-23.9s-5.8-23.6-5.9-23.7c-1-1.6-0.5-3.7,1.1-4.8C175.3,29.8,177.6,30.2,178.6,31.8
		L178.6,31.8z"/>
	<path fill="#EC1C24" d="M204.8,31.8c0.3,0.4,6.6,10.1,6.6,27.3s-6.3,27.1-6.6,27.5c-1,1.6-3.2,2-4.8,1c-1.6-1-2.1-3.2-1-4.8
		c0-0.1,5.5-8.7,5.5-23.8c0-15-5.4-23.4-5.4-23.5c-1-1.6-0.6-3.7,1-4.8C201.6,29.9,203.7,30.3,204.8,31.8L204.8,31.8z"/>
</g>
</svg>
