<?xml version="1.0" encoding="utf-8"?>
<!-- Generator: Adobe Illustrator 18.0.0, SVG Export Plug-In . SVG Version: 6.00 Build 0)  -->
<!DOCTYPE svg PUBLIC "-//W3C//DTD SVG 1.1//EN" "http://www.w3.org/Graphics/SVG/1.1/DTD/svg11.dtd">
<svg version="1.1" id="Layer_1" xmlns="http://www.w3.org/2000/svg" xmlns:xlink="http://www.w3.org/1999/xlink" x="0px" y="0px"
	 viewBox="0 0 152 103" enable-background="new 0 0 152 103" xml:space="preserve">
<rect fill="#FFFFFF" width="152" height="103"/>
<g>
	<path fill="none" stroke="#231F20" stroke-width="1.029" stroke-miterlimit="10" d="M147.4,48.4c0-1.3,1-2.3,2.3-2.3s2.2,1,2.2,2.3
		c0,1.2-1,2.2-2.2,2.2C148.4,50.7,147.4,49.6,147.4,48.4z"/>
	<path fill="#231F20" d="M148.7,49.6h0.5v-0.9h0.5c0.4,0,0.4,0.1,0.4,0.5c0,0.2,0.1,0.4,0.1,0.4h0.6v-0.1c-0.1-0.1-0.1-0.1-0.1-0.5
		c0-0.4-0.1-0.5-0.3-0.6c0.2-0.1,0.4-0.2,0.4-0.6c0-0.2-0.1-0.6-0.7-0.6h-1.2L148.7,49.6L148.7,49.6z M149.2,48.3v-0.6h0.6
		c0.2,0,0.4,0.2,0.4,0.3c0,0.2-0.2,0.4-0.4,0.4H149.2z"/>
	<polygon fill="#231F20" points="115.2,42.1 104.8,61 130.3,61 131.9,58.1 117.6,58.1 120.2,53.2 134.6,53.2 136.3,50.1 121.9,50.1 
		124.6,45.3 152,45.3 152,42.1 	"/>
	<path fill="#231F20" d="M90,42.1c-3.6,0-5.1,2.9-5.1,2.9l-2.9,5.1c-1.6,3.1,1.5,3.1,1.5,3.1H94c0.4,0,0.2,0.4,0.2,0.4l-1.9,3.3
		c-0.4,0.7-1.3,0.7-1.3,0.7h-1c-1-0.1-0.6-0.9-0.6-0.9l0.6-1H78.8l-1.4,2.6C76,61,79.2,61,79.2,61h19.1c3,0,4.5-2.9,4.5-2.9l2.9-5.2
		c1.6-2.8-1.7-2.8-1.7-2.8h-11l1.9-3.3c0.7-1.4,1.9-1.4,1.9-1.4h0.9c1,0,0.6,0.6,0.6,0.6l-0.9,1.4h11.4l1.6-3
		c1.4-2.6-1.6-2.6-1.6-2.6L90,42.1L90,42.1z"/>
	<path fill="#231F20" d="M69.5,45.4c1.3,0,0.9,0.8,0.9,0.8L64.4,57C63.9,58,62.6,58,62.6,58h-1.4c-1.6,0-1.1-1-1.1-1l5.9-10.5
		c0.6-1.1,1.4-1.1,1.4-1.1L69.5,45.4L69.5,45.4z M61,42.1c-3.5,0-5.3,3.4-5.3,3.4L49,58C47.2,61,50.4,61,50.4,61h19.3
		c3.2,0,4.9-3.1,4.9-3.1l6.9-12.6C83.3,42,80,42,80,42L61,42.1L61,42.1z"/>
	<path fill="#231F20" d="M40.7,61c0,0,3.4,0,4.7-2.6l2.4-4.2c0.9-1.5-0.6-2.7-0.6-2.7c2.3-0.6,3.3-2.1,3.3-2.1l2.6-4.9
		c0.9-2.5-2.5-2.5-2.5-2.5H28.9l-8.8,16H0v3L40.7,61L40.7,61z M31.4,58.1l2.5-4.7H39c1.4,0.1,0.6,1.4,0.6,1.4l-1.3,2.4
		c-0.6,1-1.6,1-1.6,1L31.4,58.1L31.4,58.1z M43.4,45.4c1.2,0.2,0.7,1.4,0.7,1.4L43,49c-0.9,1-2.1,1-2.1,1h-5.1l2.5-4.6H43.4z"/>
</g>
</svg>
