<?xml version="1.0" encoding="utf-8"?>
<!-- Generator: Adobe Illustrator 18.0.0, SVG Export Plug-In . SVG Version: 6.00 Build 0)  -->
<!DOCTYPE svg PUBLIC "-//W3C//DTD SVG 1.1//EN" "http://www.w3.org/Graphics/SVG/1.1/DTD/svg11.dtd">
<svg version="1.1" id="Layer_1" xmlns="http://www.w3.org/2000/svg" xmlns:xlink="http://www.w3.org/1999/xlink" x="0px" y="0px"
	 viewBox="0 0 213 144" enable-background="new 0 0 213 144" xml:space="preserve">
<g>
	<g>
		<path fill="#66B933" d="M154.8,4.2c-0.5-0.2-0.3-0.6-0.3-0.6c-0.7-3.1-2.9-1.1-3.5-0.5c-0.5,0.6-1.1,0.8-1.1,0.8
			c-7.2-0.7-7.8,1.3-8,1.6c-0.1,0.3-0.4,0.5-0.4,0.5c-2.9,0.6-3.4,2.7-3.4,2.7c-0.3,1-0.9,0.5-0.9,0.5c-2.3-1.5-4.9-1.2-4.9-1.2
			c-6.7,1-7.5,6.4-7.5,6.4c-1.8,8.7,11.7,20.6,11.7,20.6s5.1,4.5,4.4,8.1c-0.6,3.6-4.4,3.3-4.4,3.3c0.9-1.3,0.7-3.7,0.7-3.7
			c-0.4-7.6-5.7-9.2-8.5-8.9c-2.7,0.3-2.7,2-2.7,2c0,1.9,1.8,1.8,1.8,1.8c3.4,0.4,5.1,3.2,4.8,5.7c-0.3,2.5-1.4,1.2-1.4,1.2
			c-4.5-5.8-7.9-6.8-8.8-6.7c-0.9,0.1-0.8-0.5-0.8-0.5c-0.8-7.9-8.3-11.8-9.1-11.9c-0.8-0.1-0.7-0.7-0.8-1.1
			c-0.1-0.4-0.5-1.8-0.5-1.8s-3.3-8.4-12.7-7.3c-9.5,1.1-10.8,12-11.1,12.9c-0.3,0.9-3.4,14.5-3.4,14.5c-0.1,0.8-0.8,3.8-3,3.7
			c-2.1-0.1-1.2-3.9-1.2-3.9s1.4-5.9-2.3-7.2c-3.7-1.3-5.9,1.8-6.1,3c-0.2,1.2-0.5,0.6-0.5,0.6c-0.4-1.2-1.6-2.3-4.8-2.8
			c-3.2-0.5-4-1.7-4-1.7c-2.3-2.8-3.3,0.7-3.3,0.7c-0.1,0.3,0,0-0.3,0.1c-0.3,0.1-0.5,0.7-0.5,0.7c-0.4,1.8,1.3,1.9,2.3,2
			c0.9,0.1,1.5,0.9,1.5,0.9c3.3,7.1,6.2,5.3,6.2,5.3c1.7,1.8,4.3,1.3,4.8,1.2c0.5-0.1,0.5,0.5,0.5,0.5c1.4,9.7,12.1,9.2,15.6,3.9
			c3.5-5.3,4.4-11.4,5.1-15.4c0.7-4.1,0.6-6.8,3.2-9.8c2.6-3,5.7-0.8,6.3-0.2c0.6,0.6-0.3,0.7-0.3,0.7c-3.7,1.4-6.1,4.6-6.6,8
			c-0.6,3.4,1.5,7,3.7,6.7c2.2-0.3,1.7-1.5,1.1-2.7c-0.5-1.2-0.5-2.7-0.5-2.7c0.2-3.4,2.6-4.1,3.5-4.5c0.9-0.4,0.9,0.3,0.9,0.3
			c-2,4.4-0.7,10.9-0.7,10.9c0.4,1-0.2,1.1-0.2,1.1c-7.3,5.6-6.2,13.5-6.2,13.5c-3.8,1.7-5,6.7-5,6.7c-0.6,6.1,0.6,10.8,6.6,13.8
			c6,3,23.9-2.2,23.9-2.2c1.5-0.7,6.3-1.2,6.5,1.1c0.3,2.3-3.6,2.6-3.6,2.6c-5.2,0.3-5.1,4.7-5.1,4.7c0.4,5.2,5.2,4.3,5.7,4.4
			c0.5,0,0.2,0.4,0.2,0.4c-1.7,1.7-0.4,4.8,0.1,7.2c0.5,2.4-0.2,2.9-0.2,2.9c-1.9,2.4,0.9,3.1,1.3,2.9c0.3-0.2,0.5,0,0.5,0
			c3,1,2.2-2,2-2.5c-0.2-0.6,0.3-2.2,0.3-2.2c3.6-4.4,2.9-7.1,2.5-7.2c-0.3-0.1-0.3-0.6-0.3-0.6s1-3.9-0.6-4.4
			c-1.6-0.6,0.4-1.3,0.4-1.3c3.1-1.2,6-8.7,0.6-13.5c-5.4-4.8-20.2-0.2-20.2-0.2s-5,1.8-9.6,1.2c-4.5-0.6-4.2-4.1-3.7-5.4
			c0.5-1.3,0.8-0.5,0.8-0.5c0.8,1.5,3.4,2.6,3.4,2.6c4.8,2,8.6-0.6,8.6-0.6c3.1-1.4,3.4-5.5,2.1-6.3c-1.4-0.7-2.1,0.4-2.1,0.4
			c-2.3,3-5.7,2.9-7.5,1.6c-1.8-1.3-0.7-1.8-0.7-1.8c9.4-1.2,11.1-4.8,11.1-4.8c0.7-0.6,0.9,0,0.9,0c6.3,2.7,12.5-0.5,13.5-1
			c0.9-0.5,2,0.1,2,0.1c5.7,1.4,10.2,0.8,14.8-5.7c4.6-6.5-2.7-14.3-2.6-14.2c0.2,0.1-12-13.8-12-13.8c-2.8-4.3,0.6-6.3,3.4-2.7
			c2.8,3.7,4.9,2.9,4.9,2.9c6.2-0.8,3.8-6.9,3.2-7.4c-0.5-0.4-0.3-0.7-0.3-0.7c3.3,0.5,6.1-3.2,6.7-4.1c0.7-0.8,1.3-0.8,1.3-0.8
			C155.8,7.5,155.3,4.5,154.8,4.2z M105.3,51.9c0,0,2.3-4.6,5.7-4.3C111,47.6,111.5,50.2,105.3,51.9z M113.1,40
			c-2.1-1.2-1.2-7-1.2-7C115.5,38.5,113.1,40,113.1,40z M118.7,45.2c2.3-1.3,6.1,3,6.1,3C118.3,47.9,118.7,45.2,118.7,45.2z"/>
		<path d="M151.9,4.9c0.4-0.3,0.7-1.3,0.7-1.3c-0.3,0.7-1.7,1.6-1.7,1.6l-1.7,0.5c-5.8-0.6-6.1,0.9-6.3,1.2
			c-0.2,0.3-0.7,0.7-0.7,0.7c-1.3,0.1-2.7,1.1-3,2.6c-0.3,1.5,1.2,3.6,1.2,3.6c0.2,1.1-0.8,0.3-0.8,0.3c-1.1-2.4-4.9-3.9-4.9-3.9
			c-4.8-0.9-8.5,1.1-8.6,7.1c-0.1,6,10.2,15.2,10.2,15.2c5.1,4,5.9,8.6,5.9,8.6c2.1,7.1-6.8,7.2-6.8,7.2c-1.4,0.1-1.3-0.3-1.3-0.3
			s2.9-5.8,0-9.8c-2.9-4-6.3-2.1-6.3-2.1s1.3-0.7,4.7,2.3c3.4,3,0.5,7.5,0,8.2c-0.5,0.7-0.9,0.4-0.9,0.4s-3.3-2.8-5.7-5.5
			c-2.4-2.7-6.3-2.5-6.3-2.5c1.1-8.4-9.4-13-9.4-13c-1.1-9.4-9.9-9.3-9.9-9.3c-9.1-0.4-10.7,9.3-10.7,9.3s-3.1,11.3-3.3,13.2
			c-0.2,1.8-1.7,9.6-5.6,8.8c-3.9-0.7-3-5.4-2.5-6.7c0.5-1.3,0.7-4.2-1.8-4.7c-2.5-0.5-3.9,2.9-3.9,2.9s-0.5,1.3-1.5,1.4
			c-1,0.1-1.3-0.9-1.3-0.9c0.2-2.5-6.4-2.7-6.4-2.7l-1.8-1.1c-0.4-0.3-1-1.2-1-1.2c-0.1,0.4,0.2,1.1,0.2,1.1
			c-0.3-0.1-1.1,0.3-1.1,0.3c0.6,0,1.8,0.5,1.8,0.5l1.5,1.1c0.2,1.5,2,3.3,2,3.3c1.9,2.2,2.6,1.4,3.2,1.5c0.6,0.1,0.7,0.4,0.7,0.4
			c0.6,1,2.3,1,2.3,1c2.5-0.1,2.8-2.1,3.5-3.3c0.7-1.1,0.9,0.1,0.7,0.7c-0.2,0.6-0.7,2.9-0.7,2.9c-0.5,1,0.6,8.1,6.8,7.6
			c6.2-0.5,6.8-5.6,8.4-8.4c1.6-2.9,1.7-7,2.9-12.3c1.2-5.3,2.8-7.3,2.8-7.3c4.2-6.3,9.4-0.6,10.3,0.6c0.9,1.2,0.1,1.4,0.1,1.4
			c-5.2,0.7-7.4,3.7-7.9,7.5c-0.5,3.8,2.2,4.5,2.2,4.5s-3-4.5,0.4-7.9c3.5-3.3,6.3-1.9,6.3-1.9s0.1,0.6-0.9,5.5
			c-1,4.9,0.5,7.6,0.5,7.6c0.6,1.4-0.2,1.5-0.2,1.5c-7.9,4.9-6.5,11.4-6.6,12.6c-0.1,1.2-1.3,1.6-1.3,1.6c-4.8,3.5-3.8,9.1-3.8,9.1
			c1,8.9,8,9.3,12.8,9c4.8-0.2,17.2-3.4,17.2-3.4c1-0.5,7.2-1.2,7.3,2.6c0.1,3.9-3.7,4.3-3.7,4.3c-0.1,0-5.3-0.2-5.1,3.2
			c0.2,3.5,4.1,3.3,5,3.1c0.9-0.2,1.9,1.4,0.9,2.2c-1.1,0.8-0.9,2-0.9,2c-0.2,2,1.3,4.8,1.3,4.8l-0.2,2.3c-0.3,1.1-0.7,1.7-0.7,1.7
			c0.5-0.2,0.9-0.7,0.9-0.7c0,0.3,0.6,0.8,0.6,0.8c-0.4-0.8-0.3-2.1-0.3-2.1l0.3-2c4.2-4.1,2.3-6.3,2.3-6.3s-0.8-0.3-0.2-1.1
			c0.6-0.8,0.3-2.1,0.3-2.1c-0.4-2.2-4.3-1.9-4.3-1.9s-0.7-0.1-0.8-0.6c-0.1-0.6,0.8-0.6,0.8-0.6h1.3c0,0,2.2-0.3,4.8-2.4
			c2.6-2.1,1.2-7.1,1.2-7.1c-1.7-4.6-8-4.9-13.1-4.5c-5.1,0.4-10.6,3.1-15,3.3c-4.3,0.3-7.2-0.6-8.1-3.3c-0.9-2.7,0.4-5.7,1.2-6.9
			c0.7-1.1,0.9-0.3,0.9-0.3s3.2,4.7,7.6,4.6c4.4-0.1,5.6-3.1,5.6-3.1c1-2-0.2-1.2-0.2-1.2c-0.6,1-2.8,2.7-5.4,2.7
			c-2.5,0-4.2-1.8-4.2-1.8c-2.5-2.2-1.5-3.3-1.5-3.3s0.4-0.8,5-1.6c4.6-0.8,7.1-3.7,7.6-4.4c0.5-0.7,1.1,0,1.1,0
			c6.2,4.1,14.2-0.6,14.5-1.1c0.3-0.4,0.5-0.1,0.5-0.1c3.8,2.8,12,1.6,14.8-5.6c2.8-7.2-5.4-14.1-5.4-14.1s-6.3-7.5-9.3-10.7
			c-3-3.2-0.8-6.3-0.8-6.3c3-2.7,6.3,1.6,6.3,1.6c1.3,2.4,3.2,3,5,2c1.8-0.9,1.8-3.4,0.3-5.3c-1.5-1.8,0.7-2.6,0.7-2.6
			c1.2,0.3,1.7,0.2,1.7,0.2c2.4-0.3,4.8-4,4.8-4l1.8-0.7c0.5-0.1,1.9-0.2,1.9-0.2C153.3,5,151.9,4.9,151.9,4.9z M112.7,48.7
			c-0.5,2.7-10.1,6-10.1,6s1.7-8.1,8.4-8.7C111,45.9,113.3,45.9,112.7,48.7z M113.1,41.5c-4.7-0.3-2.6-12-2.6-12
			c3.1,1.6,4.7,6.5,4.7,6.5C116.3,41.8,113.1,41.5,113.1,41.5z M117.4,44.4c3-4.2,11.3,4.8,11.3,4.8
			C115.6,51.4,117.4,44.4,117.4,44.4z"/>
	</g>
	<g id="XMLID_4_">
		<g>
			<path fill="#FFFFFF" d="M158.8,112.8c1.8,0.5,3.9,0.6,4,2.7c1.3-0.8,4.5-0.5,5.8,0c0.4,1.2,0.9,3.9,0,5c-4.2,0.6-6.2-1-9.9-0.9
				C158.8,117.3,158.8,115,158.8,112.8z"/>
			<path fill="#FFFFFF" d="M109.4,121.8c0.1,3.4,0,10.4-6.3,9C105.4,128,107.1,124.6,109.4,121.8z"/>
			<path fill="#66B933" d="M130.9,124.5c1.2,1.8,2.9,3.1,5.4,3.6c0.2-2.5,1.3-4.1,1.3-6.7c-1.5,0-3,0-4.5,0
				C133.8,123.8,130.9,122.6,130.9,124.5z M147.6,111c0,1.1,0,2.1,0,3.1c-1.5,0.9-4.6,0.3-6.7,0.5c-1.6-2.2-8.9-3.3-9.9,0.9
				c0.5,4.6,7.1,2.7,9.9,2.7c0.6,0.6,0.4,1.9,0.4,3.1c-0.6,0.6-1.9,0.5-3.1,0.5c0,1.6-0.7,2.6-0.9,4c3.4,0,6.9,0,10.3,0
				c0,1.2,0,2.4,0,3.6c-3.6,0-7.2,0-10.8,0c-1,1.6-0.9,4.2-1.8,5.8c-1.3-0.6,0.5-1.5,0-2.7c-3.2-1.6-7.2-3.6-8.1-8.1
				c-2-9.6,4.6-19.3,13.9-15.7c0,0.8,0,1.5,0,2.2C143.1,111,145.3,111,147.6,111z"/>
			<path fill="#FFFFFF" d="M52.7,108.3c0.2,3.9-0.1,10.8-6.3,9.9c0-3.5,0-6.9,0-10.4C48.5,108.1,51.4,107.4,52.7,108.3z"/>
			<path fill="#66B933" d="M53.6,111.5c-0.6,2.1-1.5,3.9-1.8,6.3c1.5,0.2,2.5-0.2,3.6-0.4c0.7-1.5,0.7-4.4,0-5.8
				C54.8,111.5,54.2,111.5,53.6,111.5z M46.4,118.2c6.2,1,6.4-6,6.3-9.9c-1.3-0.9-4.2-0.3-6.3-0.5C46.4,111.3,46.4,114.7,46.4,118.2
				z M59.9,120.9c-1.8-0.1-2.3,1-4,0.9c0.6,3.4,4.2,5.4,7.2,7.6c-1.5,1.7-3.1,0.7-4.9,2.2c-2.5-2.3-5.3-4.2-7.6-6.7
				c-1.5,1.1-1.4,3.7-2.3,5.4c-0.5-2.1,1.6-5.6,1.8-8.5c-0.3-1-2.5-0.2-3.6-0.5c0,4.6,0,9.3,0,13.9c-1,0-2.1,0-3.1,0
				c0-4.8,0-9.6,0-14.4c-1.9,6.7-3.7,13.7-4.9,21.1c-2-2.1,0.3-4.6,0.9-6.7c2.4-9.4,4.5-20.8,7.2-30.6c2.5-0.3,5,0,6.8-0.9
				c1.6-0.8,1.7-2.3,3.1-3.1c-0.2,2.3-1.2,3.9-1.3,6.3C62.1,105.9,61.7,115.9,59.9,120.9z"/>
			<path fill="#FFFFFF" d="M77.9,132.6c0.1-2.3,0.3-4.5,0.9-6.3c2-0.4,2.7,0.6,4.5,0.4C84,131,80.4,133,77.9,132.6z"/>
			<path fill="#FFFFFF" d="M128.7,101.6C130,98.6,127.5,105.1,128.7,101.6L128.7,101.6z"/>
			<path fill="#66B933" d="M96.3,118.7c1.1-0.4-0.5,3.5-0.5,4.9C94.6,122.3,96.6,120.4,96.3,118.7z"/>
			<path fill="#66B933" d="M127.8,103.8c-0.3,6.7-3.5,18.5-5.4,26.5C122.8,121.9,126.4,112.8,127.8,103.8z"/>
			<path fill="#FFFFFF" d="M137.7,121.3c0,2.7-1.2,4.2-1.3,6.7c-2.5-0.5-4.2-1.8-5.4-3.6c-0.1-1.9,2.9-0.7,2.3-3.2
				C134.7,121.3,136.2,121.3,137.7,121.3z"/>
			<path fill="#FFFFFF" d="M55.4,117.3c-1.1,0.3-2,0.6-3.6,0.4c0.3-2.3,1.2-4.2,1.8-6.3c0.6,0,1.2,0,1.8,0
				C56.1,112.9,56.1,115.8,55.4,117.3z"/>
			<path fill="#FFFFFF" d="M79.7,121.8c-0.2-2.2,1-3.1,0.9-5.4C82.6,117.6,83,121.6,79.7,121.8z"/>
			<path fill="#66B933" d="M103.1,130.8c6.2,1.4,6.4-5.6,6.3-9C107.1,124.6,105.4,128,103.1,130.8z M99.5,113.3c0-0.9,0-1.8,0-2.7
				c2.9,0.4,6.3-0.3,9-0.5c1.9-0.1,4,0.9,5-0.5c0.8,0.3,0.1,0.8,0,1.3c2.1,0,4.2,0,6.3,0c-1.4,6.5-9.2,6.7-9.4,14.4
				c2.2,1.3,7.3-0.4,9.4,0.9c0,1,0,2.1,0,3.1c-2.8,1-4.5,0.7-6.7,0.5c-1.8,1.1-2.7,3-4.9,3.6c0,2-1.2,3-0.9,5.4
				c-1.6-0.2,0.6-3.8,0.5-5.4c-2.8-0.3-6.5,0.5-8.5-0.5c0.2-4.9,3.1-7.1,5.8-9.4c1.6-4.1,5.1-6.2,7.2-9.9
				C108.8,112.7,103.5,113.5,99.5,113.3z"/>
			<path fill="#FFFFFF" d="M156.1,123.6c-1.3-0.7,0.6-2,0-3.6C157,120.4,156.6,123.1,156.1,123.6z"/>
			<path fill="#FFFFFF" d="M76.6,132.6c-3.5,0.3-4.3-3.8-3.2-6.7c1.5-0.8,2.8-1.7,4.9-1.8C77.9,127,76.8,129.4,76.6,132.6z"/>
			<path fill="#66B933" d="M80.6,116.4c0.2,2.3-1,3.2-0.9,5.4C83,121.6,82.6,117.6,80.6,116.4z M77.9,132.6c2.5,0.4,6.1-1.6,5.4-5.8
				c-1.8,0.2-2.5-0.8-4.5-0.4C78.2,128.1,78,130.2,77.9,132.6z M75.2,134.8c-9.4-1.8-5.1-14.3,3.1-13.5c1.5-0.9,1-3.8,1.8-5.4
				c-1.7-2-5.8-1.3-7.6,0c0-0.9,0-1.8,0-2.7c2-1.4,5.8-1.1,8.5-1.8c0-0.3,0-0.6,0-0.9c0.4-0.1,0.4,0.2,0.4,0.4
				c0,1.5,2.1,0.9,2.7,1.8c2.7,3.6,3.6,9,6.7,12.1c0.7-0.4,0.7-1.4,0.9-2.3c0.9,1.1-0.5,3-0.9,4.5c-0.5,1.6-0.2,4-1.8,4.5
				c1.1-1.4-1.4-2.2-1.8-3.6c-2-0.1-1.7,2.2-2.3,3.6c-2,1.4-3.7,3.2-7.2,3.2c-1.2-0.2-0.4,1.7-1.3,1.8
				C75.1,137,75.9,135.1,75.2,134.8z M73.4,125.8c-1.1,2.9-0.4,7,3.2,6.7c0.3-3.2,1.3-5.6,1.8-8.5C76.2,124.1,74.9,125.1,73.4,125.8
				z"/>
			<path fill="#66B933" d="M93.2,135.7c-0.8-3.5,1.6-7.7,1.8-11.7C95.7,127.4,93.5,131.8,93.2,135.7z"/>
			<path fill="#66B933" d="M92.7,136.2c0.6,0.8,0.2,4.4-1.3,4.5C91.9,139.2,92.2,137.5,92.7,136.2z"/>
			<path fill="#66B933" d="M156.1,120c0.6,1.6-1.3,2.9,0,3.6C156.6,123.1,157,120.4,156.1,120z M158.8,119.5
				c3.7-0.1,5.7,1.5,9.9,0.9c0.9-1.1,0.4-3.7,0-5c-1.4-0.5-4.6-0.8-5.8,0c-0.1-2.1-2.3-2.2-4-2.7C158.8,115,158.8,117.3,158.8,119.5
				z M161.5,124.9c-1.4,3.2-1.6,7.7-2.7,11.2c-0.3-3.3,1.3-8.6,2.3-12.1c-4.3-0.7-1,6.2-2.7,8.1c-2.9,0.2-2.7-2.7-3.1-5
				c-1.8,2.3-1.2,6.9-2.7,9.4c-0.7-3.8,2-7.5,2.3-11.7c0.3-4.7-0.5-9.4,0.4-14.4c2-1.3,5.7-0.9,9-0.9c0,0.8,0,1.5,0,2.3
				c2.5,0,5.1,0,7.6,0c2.5,1.7,2.5,9.4,0.4,11.7c-1.3,0.6-3.4,0.5-5.4,0.4c2.7,2.4,5.3,4.9,8.5,6.7
				C167.9,133.5,165.4,127.3,161.5,124.9z"/>
		</g>
		<g>
		</g>
	</g>
</g>
</svg>
