<?xml version="1.0" encoding="utf-8"?>
<!-- Generator: Adobe Illustrator 18.0.0, SVG Export Plug-In . SVG Version: 6.00 Build 0)  -->
<!DOCTYPE svg PUBLIC "-//W3C//DTD SVG 1.1//EN" "http://www.w3.org/Graphics/SVG/1.1/DTD/svg11.dtd">
<svg version="1.1" id="Layer_1" xmlns="http://www.w3.org/2000/svg" xmlns:xlink="http://www.w3.org/1999/xlink" x="0px" y="0px"
	 viewBox="0 0 213 144" enable-background="new 0 0 213 144" xml:space="preserve">
<g>
	<path d="M135.9,76.3c0,4.7,0,9.3,0,13.8c-1.9,0-3.7,0-5.6,0c0-8.2,0-16.4,0-24.6c0.4,0,0.7,0,1,0c1.4,0,2.8,0,4.2,0
		c0.3,0,0.5,0.1,0.7,0.3c3.7,4.4,7.4,8.8,11.1,13.2c0.1,0.1,0.1,0.2,0.2,0.3c0,0,0.1,0,0.1-0.1c0-4.6,0-9.1,0-13.7
		c1.9,0,3.7,0,5.6,0c0,8.2,0,16.4,0,24.6c-0.1,0-0.3,0-0.4,0c-1.6,0-3.2,0-4.8,0c-0.2,0-0.5-0.1-0.6-0.3c-3.7-4.4-7.4-8.8-11.1-13.3
		C136.1,76.6,136,76.5,135.9,76.3z"/>
	<path d="M179.3,65.5c0,1.9,0,3.7,0,5.6c-0.2,0-0.4,0-0.6,0c-3.9,0-7.8,0-11.7,0c-3.3,0-6,2.2-6.7,5.4c-0.8,3.8,1.8,7.4,5.6,8
		c0.4,0,0.7,0.1,1.1,0.1c2,0,4,0,6.1,0c0.2,0,0.3,0,0.5,0c0-1.3,0-2.6,0-3.9c-1.1,0-2.2,0-3.3,0c-0.7,0-1-0.2-1.3-0.8
		c-0.6-1.5-1.3-2.9-1.9-4.3c-0.1-0.1-0.1-0.3-0.2-0.5c4.1,0,8.2,0,12.3,0c0,5,0,10,0,15.1c-0.2,0-0.4,0-0.5,0c-4,0-8.1,0-12.1,0
		c-3,0-5.5-1-7.7-3c-2.2-1.9-3.7-4.3-4.1-7.3c-0.6-4.4,0.6-8.1,3.8-11.2c1.7-1.6,3.8-2.7,6.2-3.1c0.6-0.1,1.2-0.2,1.9-0.2
		c4.1,0,8.2,0,12.3,0C179.1,65.5,179.2,65.5,179.3,65.5z"/>
	<path d="M51,65.7c-3.7,3.7-7.3,7.3-11,11c3.8,4.5,7.5,8.9,11.3,13.5c-0.2,0-0.3,0-0.4,0c-2.2,0-4.4,0-6.6,0c-0.2,0-0.4-0.1-0.6-0.3
		c-2.5-3-5-5.9-7.5-8.9c-0.1-0.1-0.2-0.2-0.2-0.4c-0.8,0.8-1.6,1.6-2.3,2.3c-0.1,0.1-0.1,0.3-0.1,0.5c0,2,0,4.1,0,6.1
		c0,0.2,0,0.4,0,0.6c-1.9,0-3.7,0-5.6,0c0-8.2,0-16.4,0-24.6c1.8,0,3.7,0,5.6,0c0,3.1,0,6.3,0,9.5c0.2-0.2,0.4-0.3,0.5-0.4
		c2.9-2.9,5.9-5.9,8.8-8.8c0.2-0.2,0.5-0.3,0.8-0.3c2.3,0,4.6,0,6.9,0c0.2,0,0.3,0,0.5,0C50.9,65.6,50.9,65.6,51,65.7z"/>
	<path d="M103.2,90.2c-2.1,0-4.1,0-6.1,0C94.7,85,92.4,79.7,90,74.4c-1.5,3.5-3,6.8-4.6,10.2c2.8,0,5.5,0,8.2,0
		c-0.2,0.4-0.3,0.7-0.5,1.1c-0.6,1.4-1.3,2.8-1.9,4.3c-0.1,0.1-0.3,0.3-0.4,0.3c-4.6,0-9.3,0-13.9,0c-0.1,0-0.1,0-0.2,0
		c0.4-0.9,0.8-1.8,1.2-2.7c3.2-7.1,6.3-14.2,9.5-21.4c0.2-0.5,0.5-0.6,1-0.6c1.1,0,2.2,0,3.4,0c0.3,0,0.5,0.1,0.6,0.4
		c3.5,8,7.1,16,10.7,24C103.1,89.9,103.1,90,103.2,90.2z"/>
	<path d="M26.4,90.2c-0.2,0-0.4,0-0.6,0c-1.7,0-3.4,0-5,0c-0.4,0-0.6-0.1-0.8-0.5c-2.2-4.9-4.4-9.9-6.6-14.8
		c-0.1-0.1-0.1-0.3-0.3-0.6c-1.5,3.5-3,6.8-4.6,10.2c2.8,0,5.5,0,8.2,0c-0.8,1.9-1.7,3.7-2.5,5.6c-4.8,0-9.6,0-14.4,0
		c0.3-0.8,0.7-1.5,1-2.3c3.3-7.3,6.5-14.7,9.8-22c0.1-0.3,0.3-0.4,0.6-0.4c1.2,0,2.4,0,3.6,0c0.3,0,0.4,0.1,0.6,0.3
		c3.5,8,7.1,15.9,10.6,23.9C26.3,89.9,26.3,90,26.4,90.2z"/>
	<path d="M75.2,90.2c-0.2,0-0.3,0-0.4,0c-2.2,0-4.4,0-6.6,0c-0.2,0-0.4-0.1-0.5-0.2c-2.5-3-5-6-7.6-9c-0.2-0.2-0.2-0.4-0.1-0.6
		c0.7-1.6,1.5-3.3,2.2-4.9c0.1-0.3,0.3-0.4,0.6-0.4c1.6,0,3.2,0,4.8,0c1,0,1.9-0.7,2-1.6c0.1-1.1-0.4-2-1.4-2.2
		c-0.2-0.1-0.5-0.1-0.7-0.1c-4.7,0-9.5,0-14.2,0c-0.2,0-0.4,0-0.6,0c0-1.9,0-3.7,0-5.6c0.2,0,0.4,0,0.6,0c4.8,0,9.6,0,14.3,0
		c3.8,0,7,2.9,7.5,6.4c0.7,5.1-3.2,8.4-6.5,8.7c-0.4,0-0.9,0.1-1.5,0.1C69.9,83.9,72.6,87,75.2,90.2z"/>
	<path d="M121.7,65.5c0,1.9,0,3.7,0,5.6c-0.2,0-0.4,0-0.5,0c-2.8,0-5.5,0-8.3,0c-3.5,0-6.4,2.6-6.7,6c-0.3,3.5,1.9,6.7,5.3,7.4
		c0.5,0.1,1,0.1,1.5,0.1c2.7,0,5.4,0,8.2,0c0.2,0,0.3,0,0.5,0c0,1.9,0,3.7,0,5.6c-0.2,0-0.3,0-0.5,0c-2.8,0-5.7,0-8.5,0
		c-2.8,0-5.3-0.9-7.4-2.7c-2.4-2-4-4.4-4.5-7.5c-0.7-4.5,0.6-8.4,4.1-11.5c2.3-2.1,5.1-3,8.2-3c2.7,0,5.4,0,8.1,0
		C121.3,65.5,121.4,65.5,121.7,65.5z"/>
	<path d="M123.2,65.5c1.9,0,3.7,0,5.5,0c0,8.2,0,16.4,0,24.6c-1.8,0-3.7,0-5.5,0C123.2,82,123.2,73.8,123.2,65.5z"/>
	<path d="M58.3,90.2c-1.8,0-3.7,0-5.5,0c0-5,0-10,0-15.1c1.8,0,3.7,0,5.5,0C58.3,80.1,58.3,85.1,58.3,90.2z"/>
	<path fill="#ED1C24" d="M213,54.2c-1.3,1.5-2.5,3-3.7,4.4c-0.2,0.3-0.5,0.5-0.7,0.8c-0.2,0.3-0.5,0.4-0.9,0.4
		c-2.1-0.3-4.2-0.3-6.4-0.3c-1.2,0-2.4,0.2-3.6,0.3c-0.1,0-0.1,0-0.3,0c0.4-0.5,0.8-0.9,1.1-1.4c1.1-1.3,2.2-2.6,3.3-4
		c0.2-0.2,0.5-0.3,0.7-0.4c2.7-0.3,5.4-0.5,8-0.1C211.4,54,212.2,54.1,213,54.2z"/>
	<path fill="#ED1C24" d="M196.8,59.8c-0.5,0.6-0.9,1.1-1.3,1.6c-1,1.2-2,2.3-2.9,3.5c-0.3,0.4-0.7,0.5-1.1,0.6
		c-2.1,0.2-4.2,0.4-6.3,0.2c-1.2-0.1-2.4-0.2-3.8-0.3c0.6-0.7,1.1-1.3,1.6-1.9c0.9-1.1,1.9-2.3,2.9-3.4c0.1-0.1,0.4-0.3,0.5-0.3
		c1.2,0.1,2.4,0.2,3.5,0.2c2,0,3.9-0.1,5.9-0.2C196,59.9,196.3,59.9,196.8,59.8z"/>
	<path fill="#ED1C24" d="M203.4,65.6c-0.8,1-1.6,1.9-2.4,2.8c-0.7,0.8-1.3,1.6-2,2.4c-0.2,0.3-0.4,0.4-0.8,0.3c-1-0.1-2-0.2-3.1-0.2
		c-2.1,0-4.1,0.1-6.2,0.2c-0.3,0-0.6,0.1-1.1,0.1c0.6-0.7,1.1-1.3,1.6-1.9c0.9-1,1.8-2.1,2.6-3.1c0.3-0.4,0.6-0.6,1.1-0.6
		c2.6-0.2,5.3-0.4,8-0.1C201.9,65.4,202.6,65.5,203.4,65.6z"/>
</g>
</svg>
