<?xml version="1.0" encoding="utf-8"?>
<!-- Generator: Adobe Illustrator 18.0.0, SVG Export Plug-In . SVG Version: 6.00 Build 0)  -->
<!DOCTYPE svg PUBLIC "-//W3C//DTD SVG 1.1//EN" "http://www.w3.org/Graphics/SVG/1.1/DTD/svg11.dtd">
<svg version="1.1" id="Layer_1" xmlns="http://www.w3.org/2000/svg" xmlns:xlink="http://www.w3.org/1999/xlink" x="0px" y="0px"
	 viewBox="0 0 152 103" enable-background="new 0 0 152 103" xml:space="preserve">
<g>
	<g>
		<path d="M112.4,35.6c0.9,0,1.9,0.1,2.8,0c1.4-0.1,2.8,0.9,2.8,2.7c0.1,1.3,0.1,2.6,0,3.9c-0.1,1.7-1.4,2.8-2.8,2.8
			c-1.9-0.1-3.7,0-5.6,0c-1.7,0-2.8-1.5-2.7-2.7c0.1-1.4,0-2.6,0-4c0-1.7,1.5-2.8,2.7-2.7C110.5,35.6,111.4,35.6,112.4,35.6z
			 M112.3,43.3c0.8,0,1.7,0,2.6,0c0.8,0,1.3-0.5,1.3-1.3c0-1.1,0-2.3,0-3.3c0-0.8-0.5-1.3-1.3-1.3c-1.7,0-3.3,0-5,0
			c-0.8,0-1.4,0.5-1.4,1.3c0,1.1,0,2.2,0,3.3c0,0.8,0.5,1.3,1.4,1.3C110.7,43.3,111.5,43.3,112.3,43.3z"/>
		<path d="M130,40.5c0.2,0.3,0.3,0.5,0.5,0.8c0.2,0.4,0.3,0.8,0.3,1.2c0,0.6,0,1.1,0,1.6c0,0.3-0.1,0.6-0.3,0.7
			c-0.5,0.4-1.2,0.2-1.4-0.3c-0.1-0.2-0.1-0.5-0.1-0.8c0-0.5,0-0.9,0-1.3c-0.1-0.6-0.4-1-1-1c-0.7,0-1.5,0-2.1,0c-1.4,0-2.9,0-4.3,0
			c0,0.2-0.1,0.3-0.1,0.5c0,0.7,0,1.5,0,2.3c0,0.3-0.2,0.6-0.5,0.8c-0.5,0.3-1.2,0-1.2-0.6c0-1.3,0-2.6,0-3.9c0-0.4,0.3-0.7,0.7-0.7
			c0.2,0,0.3,0,0.5,0c2.2,0,4.3,0,6.5,0c0.2,0,0.5,0,0.7-0.1c0.6-0.2,1-0.7,0.9-1.2c-0.1-0.7-0.5-1-1.2-1c-2.1,0-4.3,0-6.4,0
			c-0.3,0-0.6,0-0.9,0c-0.6,0-0.8-0.3-0.8-0.9c0-0.6,0.3-0.8,0.8-0.8c2.5,0,5.1,0,7.7,0c0.6,0,1.2,0.3,1.6,0.7
			c0.9,1,1.2,2.3,0.5,3.5C130.3,40.1,130.1,40.3,130,40.5z"/>
		<path d="M103.2,38.8c-0.1,0.1-0.3,0.3-0.4,0.4c-0.8,0.8-1.7,1.7-2.5,2.6c-0.1,0.1-0.2,0.2-0.3,0.2c-0.5,0.5-0.9,0.5-1.4,0
			c-0.8-0.8-1.7-1.7-2.5-2.6c-0.2-0.2-0.5-0.5-0.8-0.7c0,0.3-0.1,0.5-0.1,0.7c0,1.5,0,2.9,0,4.4c0,0.2,0,0.3,0,0.5
			c-0.1,0.5-0.4,0.8-0.8,0.8c-0.5,0-0.8-0.3-0.8-0.8c0-0.1,0-0.2,0-0.3c0-2.4,0-4.8,0-7.2c0-0.2,0-0.5,0.1-0.7
			c0.3-0.5,1-0.5,1.4-0.1c0.3,0.3,0.6,0.6,0.8,0.8c1.1,1.1,2.1,2.1,3.2,3.2c0.1,0.1,0.2,0.1,0.3,0.2c0.5-0.5,0.9-0.9,1.4-1.4
			c1-1,1.9-1.9,2.8-2.9c0.3-0.3,0.6-0.5,1.1-0.3c0.5,0.2,0.6,0.5,0.6,1c0,2.5,0,4.9,0,7.4c0,0.6-0.3,1-0.8,1c-0.5,0-0.8-0.3-0.8-0.7
			c0-0.1,0-0.3,0-0.4c0-1.5,0-3,0-4.5c0-0.2,0-0.4,0-0.6C103.3,38.8,103.2,38.8,103.2,38.8z"/>
		<path d="M134.3,41c0,0.8,0,1.5,0,2.3c0.2,0,0.5,0,0.6,0c2.6,0,5.3,0,7.9,0c0.4,0,0.7,0.1,1,0.4c0.3,0.5,0,1.2-0.6,1.4
			c-0.2,0-0.3,0-0.5,0c-3,0-6,0-9,0c-0.1,0-0.2,0-0.3,0c-0.5-0.1-0.8-0.3-0.8-0.8c0-1.4,0-2.8,0-4.1c0-0.5,0.3-0.8,0.8-0.8
			c0.1,0,0.2,0,0.3,0c2.8,0,5.5,0,8.2,0c0.2,0,0.4,0,0.6,0.1c0.4,0.1,0.6,0.5,0.6,0.8c0,0.4-0.2,0.7-0.7,0.8
			c-0.2,0.1-0.5,0.1-0.7,0.1c-2.3,0-4.6,0-6.8,0C134.7,41,134.5,41,134.3,41z"/>
		<path d="M87.3,33.9c-0.6,0.6-1.1,1.1-1.7,1.7c-0.1,0.1-0.2,0.3-0.4,0.4c-0.3,0.3-0.8,0.3-1.1,0.1c-0.4-0.3-0.5-0.8-0.1-1.2
			c0.3-0.3,0.6-0.7,0.9-1c0.8-0.8,1.7-1.7,2.5-2.6c0-0.1,0.1-0.1,0.1-0.1c0.3-0.3,0.6-0.5,1.1-0.3c0.5,0.2,0.6,0.6,0.6,1
			c0,4,0,8,0,12c0,0.2,0,0.5-0.1,0.7c-0.2,0.3-0.5,0.5-0.8,0.4c-0.3-0.1-0.6-0.2-0.7-0.5c-0.1-0.2-0.1-0.5-0.1-0.8c0-3,0-6,0-9.1
			c0-0.2,0-0.5,0-0.7C87.4,34,87.4,34,87.3,33.9z"/>
		<path d="M138.3,37.4c-1.6,0-3.2,0-4.7,0c-0.7,0-1-0.3-1-0.8c0-0.5,0.3-0.8,0.8-0.8c0.1,0,0.2,0,0.2,0c3.1,0,6.2,0,9.3,0
			c0.3,0,0.6,0,0.8,0.3c0.2,0.2,0.3,0.5,0.2,0.8c-0.2,0.3-0.4,0.6-0.7,0.6c-0.2,0-0.3,0-0.5,0C141.2,37.4,139.7,37.4,138.3,37.4z"/>
	</g>
	<g>
		<path fill="#B10000" d="M60.7,26.9c-0.2,0.2-0.3,0.3-0.5,0.4c-1.3,1.6-2.5,3.3-3.6,5c-3,4.8-5.6,9.9-8.3,14.9
			c-1.5,2.9-3.1,5.9-4.6,8.8c-0.2,0.3-0.3,0.6-0.5,0.8s-0.4,0.2-0.6,0.2c-0.3-0.1-0.3-0.3-0.3-0.5c0.1-0.7,0.2-1.4,0.3-2
			c0.2-1.5,0.5-3,0.7-4.6c0.1-0.2,0-0.4,0.1-0.6c-3.4,0-6.8,0-10.2,0c0-0.1,0-0.1,0-0.1c3.5,0,7,0,10.6,0c0.1,1.1-0.2,2-0.3,3
			c-0.1,1-0.3,2-0.3,3c0.1,0,0.1,0,0.1,0.1c0.1-0.1,0.2-0.2,0.2-0.3c1.2-2.3,2.3-4.5,3.5-6.7c1.7-3.1,3.4-6.2,5.1-9.3
			c1.5-2.5,2.9-5.1,4.4-7.5c1.2-2,2.5-4.1,3.8-6.1c0.5-0.7,1-1.4,1.5-2c0.5-0.6,1.1-0.8,1.9-0.7c0.6,0.1,1.1,0.2,1.7,0.4
			c1,0.3,1.1,0.7,0.6,1.5c-0.5,0.9-1,1.7-1.4,2.7c-0.7,1.6-1.4,3.3-2,5c-0.7,2-1.4,4-2,6c-0.8,2.6-1.5,5.2-2.3,7.8
			c-0.5,1.9-1,3.8-1.4,5.8c-0.4,1.8-0.8,3.6-1.2,5.4c-0.3,1.7-0.6,3.4-0.9,5c-0.3,1.7-0.6,3.4-0.8,5.2c-0.2,1.2-0.2,2.5-0.3,3.8
			c0,0.2-0.1,0.4-0.1,0.6c-0.1,0.3-0.1,0.6,0.2,0.8c0.3,0.1,0.4-0.2,0.5-0.4c0.5-1,1-2,1.5-3c1.9-4,3.8-8,6-11.8
			c1.5-2.5,2.9-5,4.4-7.5c1.6-2.6,3.3-5.1,5.1-7.5c0.5-0.6,1-0.8,1.6-0.6c0.5,0.1,1,0.2,1.4,0.4c0.5,0.2,0.5,0.3,0.3,0.8
			c-0.7,1.7-1.1,3.5-1.5,5.3c-0.3,1.6-0.5,3.3-0.8,5c-0.2,1.1-0.3,2.3-0.5,3.4c-0.1,0.2-0.1,0.5-0.1,0.7c0.1,0,0.1,0.1,0.1,0.1
			c0.1-0.2,0.3-0.4,0.4-0.6c0.6-1,1.2-2,1.8-2.9c0.6-0.8,4.6-4.8,4.6-4.8v0.1c0,0-3.2,3.4-3.6,4c-1.7,2.4-3,5-3.9,7.8
			c-0.1,0.5-0.2,0.9-0.3,1.4c-0.1,0.2-0.1,0.4-0.2,0.6c-0.2,0.4-0.5,0.5-1,0.4c-0.7-0.3-1.4-1.1-1.4-1.9c0.1-0.8,0.1-1.7,0.2-2.5
			c0.1-0.9,0.2-1.8,0.3-2.7c0.2-1.4,0.3-2.8,0.6-4.2c0.5-2.3,1-4.6,1.5-6.9c0.1-0.3,0.1-0.7,0.1-1c-0.1,0.1-0.2,0.2-0.3,0.3
			c-1.9,2.5-3.7,5.1-5.4,7.8c-1.6,2.6-3.2,5.2-4.5,7.9c-1.7,3.4-3.2,6.9-4.7,10.4c-1.2,2.9-2.4,5.9-3.7,8.8
			c-0.1,0.2-0.1,0.3-0.2,0.5c-0.2,0.4-0.5,0.5-0.9,0.3c-0.8-0.2-1.3-0.6-1.5-1.4c-0.2-0.7-0.4-1.4-0.4-2.1c-0.1-1.4,0.2-2.6,0.4-3.9
			c0.2-1.3,0.4-2.6,0.6-3.9c0.3-1.7,0.6-3.4,1-5.1c0.3-1.7,0.7-3.5,1.1-5.3c0.5-2,0.9-4.1,1.4-6c0.5-1.9,0.8-3.9,1.3-5.8
			c0.3-1.3,0.7-2.5,1-3.8c0.5-1.7,0.9-3.5,1.4-5.3c0.5-1.7,1-3.4,1.6-5.2c0.5-1.6,1-3.3,1.5-4.9C60.7,27.3,60.6,27.2,60.7,26.9z"/>
		<path fill="#B10000" d="M17.6,49.3c1.2-2,3.4-5.7,4.7-7.7c1.1-1.6,2.3-3.2,3.4-4.8c0.3-0.5,0.8-0.7,1.4-0.7c0.8,0,1.6,0.2,2.4,0.6
			c0.3,0.2,0.5,0.4,0.3,0.7c-0.1,0.4-0.2,0.7-0.4,1.1c-1,2.9-2,5.8-3,8.7c-0.8,2.3-1.4,4.6-1.8,6.9c-0.4,2-0.7,4-1,6
			c-0.1,0.7-0.1,1.4-0.2,2.1c0.3,0,0.3-0.3,0.5-0.4c0.9-1.4,1.7-2.9,2.7-4.2c1-1.5,2.1-2.9,3.3-4.4c0.1-0.1,3.3-3.8,3.4-3.9v0.1
			c-2.8,3.8-8.2,11.4-10,15.8c-0.3,0.7-0.7,1-1.5,1c-1-0.1-1.8-0.7-2.1-1.7c-0.2-0.7-0.2-1.5-0.1-2.2c0.3-2,0.7-4,1.1-6
			c0.5-2.2,0.9-4.3,1.4-6.5c0.7-3.4,1.7-6.8,3-10.1c0.1-0.3,0.2-0.5,0.3-0.8c-0.1,0-0.1-0.1-0.1-0.1c-0.1,0.1-0.2,0.2-0.3,0.3
			c-1,1-1.7,2.1-2.5,3.3C21.2,43.8,18.5,47.9,17.6,49.3"/>
		<path fill="#B10000" d="M152,49.4c-24.4,0-48.9,0-73.4,0v-0.1C103.1,49.3,127.6,49.3,152,49.4C152,49.3,152,49.3,152,49.4z"/>
		<path fill="#B10000" d="M0,49.3c5.9,0,11.7,0,17.6,0v0.1C11.7,49.4,5.9,49.4,0,49.3L0,49.3z"/>
	</g>
	<g>
		<path d="M98,58.6c-1.6,0-3.1,0-4.7,0c-0.1,1,0.7,1.9,1.7,2c0.8,0.1,1.4-0.2,1.9-0.8c0.2-0.3,0.5-0.5,0.9-0.3
			c-0.2,0.8-0.8,1.4-1.5,1.6c-2.1,0.7-3.7-1-3.7-2.6c0-1.4,0.8-2.6,2.2-2.9c1.3-0.3,2.6,0.5,3,1.7C98,57.6,98.2,58,98,58.6z
			 M97.3,58c-0.2-1.2-1-2-2.3-1.9c-0.7,0.1-1.7,0.8-1.6,1.9C94.7,58,96,58,97.3,58z"/>
		<path d="M107.6,59.4c0.2,0,0.4,0,0.7,0c-0.1,0.2-0.2,0.3-0.2,0.5c-1,1.7-3.2,1.7-4.3,0.3c-0.8-1-0.9-2.5-0.2-3.5
			c0.7-1,1.6-1.4,2.8-1.2c1.2,0.2,1.9,1,2.1,2.1c0.1,0.3,0.1,0.6,0.2,1c-1.6,0-3.2,0-4.8,0c-0.1,1,0.5,1.7,1.4,2
			C106.2,60.8,107,60.4,107.6,59.4z M107.8,58c-0.2-1.4-1.1-2-2.4-1.9c-0.9,0.1-1.6,0.9-1.6,1.9C105.2,58,106.5,58,107.8,58z"/>
		<path d="M139.6,56.3c0-0.2,0.1-0.3,0.1-0.6c0.2,0,0.3,0,0.5,0c0.1,0.5,0.2,4.3,0.1,5.3c-0.2,0-0.3,0-0.5,0c0-0.3-0.1-0.5-0.1-0.8
			c-0.6,0.6-1.2,1-1.9,1c-0.4,0-0.8-0.1-1.2-0.2c-0.3-0.2-0.7-0.4-1-0.7c-0.9-1-0.9-2.9,0.1-3.9c0.6-0.6,1.2-0.8,2-0.8
			c0.7,0,1.4,0.3,1.9,0.8C139.5,56.3,139.6,56.3,139.6,56.3z M137.5,60.7c0.3-0.1,0.7-0.2,1-0.3c1-0.5,1.7-2.1,0.7-3.4
			c-0.9-1.2-2.6-1.1-3.3,0.2c-0.3,0.5-0.3,1-0.3,1.5C135.6,59.7,136.4,60.6,137.5,60.7z"/>
		<path d="M121.8,57.1c1.2,0,2.3,0,3.4,0c0.2-0.5,0.1-1.1,0.1-1.6c0-0.5,0-1,0-1.6c0.2,0,0.3,0,0.6-0.1c0,2.4,0,4.7,0,7.1
			c-0.1,0-0.1,0.1-0.2,0.1c-0.1,0-0.2,0-0.4-0.1c0-1.1,0-2.1,0-3.3c-1.2,0-2.3,0-3.4,0c0,1.1,0,2.1,0,3.3c-0.2,0-0.4,0-0.6,0.1
			c0-2.4,0-4.8,0-7.1c0.1,0,0.2-0.1,0.2-0.1c0.1,0,0.2,0,0.3,0.1C121.8,55,121.8,56,121.8,57.1z"/>
		<path d="M133.3,58.6c-0.9,0-1.6,0-2.4,0c-0.7,0-1.5,0-2.3,0c-0.1,0.5,0.1,0.8,0.3,1.2c0.7,1.1,2.5,1.1,3.3,0.1
			c0.3-0.4,0.3-0.4,0.9-0.3c-0.1,0.1-0.1,0.3-0.1,0.4c-0.5,1-1.4,1.5-2.4,1.4c-1.4-0.1-2.1-0.9-2.5-2c-0.4-1.2,0-2.6,1-3.3
			c1.8-1.2,3.9-0.2,4.2,1.8C133.2,58,133.2,58.2,133.3,58.6z M132.5,58c-0.3-1.5-1.2-2.1-2.5-1.9c-0.9,0.1-1.6,1-1.5,1.9
			C129.9,58,131.2,58.1,132.5,58z"/>
		<path d="M90.6,61c-0.2,0-0.4,0-0.6,0c0-1.1,0-2.1,0-3.3c-1.2,0-2.3,0-3.4,0c0,1.1,0,2.1,0,3.2c-0.2,0-0.3,0-0.6,0.1
			c0-2.4-0.1-4.7,0-7.1c0.2,0,0.3,0,0.6,0c0,1.1,0,2.1,0,3.2c1.2,0,2.3,0,3.4,0c0-1.1,0-2.1,0-3.2c0.2,0,0.4,0,0.6,0
			C90.6,56.3,90.6,58.6,90.6,61z"/>
		<path d="M114.3,53.9c0.2,0,0.5,0,0.5,0v7.1c0,0-0.3,0-0.6,0C114.3,58.7,114.3,56.3,114.3,53.9z"/>
		<path d="M99.9,55.7c0.2,0,0.3,0,0.5,0c0.1,0.1,0.1,0.2,0.1,0.4c0.3-0.2,0.6-0.5,1.1-0.5c0,0.2,0,0.5,0,0.7
			c-0.1,0.1-0.2,0.1-0.3,0.1c-0.5,0.1-0.7,0.5-0.8,1c-0.1,0.3-0.1,0.5-0.1,0.8c0,1,0,2,0,2.9c-0.2,0-0.4,0.1-0.6,0.1
			C99.8,60.6,99.8,56.4,99.9,55.7z"/>
		<path d="M142.9,61.1c-0.2,0-0.3,0-0.6,0.1c0-1.8,0-3.6,0-5.3c0.1,0,0.2-0.1,0.3-0.1s0.2,0,0.2,0c0.1,0.1,0.1,0.3,0.1,0.5
			c0.3-0.3,0.6-0.6,1.1-0.5c0,0.2,0,0.4,0,0.6l-0.1,0.1c-1,0.2-1.1,1-1.1,1.8c0,0.8,0,1.6,0,2.4C142.9,60.6,142.9,60.8,142.9,61.1z"
			/>
	</g>
</g>
</svg>
