<?xml version="1.0" encoding="utf-8"?>
<!-- Generator: Adobe Illustrator 18.0.0, SVG Export Plug-In . SVG Version: 6.00 Build 0)  -->
<!DOCTYPE svg PUBLIC "-//W3C//DTD SVG 1.1//EN" "http://www.w3.org/Graphics/SVG/1.1/DTD/svg11.dtd">
<svg version="1.1" id="Layer_1" xmlns="http://www.w3.org/2000/svg" xmlns:xlink="http://www.w3.org/1999/xlink" x="0px" y="0px"
	 viewBox="0 0 152 103" enable-background="new 0 0 152 103" xml:space="preserve">
<rect fill="#FFFFFF" width="152" height="103"/>
<g>
	<g>
		<g>
			<path fill="#CC3333" d="M46.5,4L31.1,40.3l4.9-1.9l18.2-7.3l3.8,9.2h4.4L46.5,4z M38,33.4l8.7-20.3l6,14.7L38,33.4z"/>
		</g>
		<g>
			<rect x="110.1" y="5" fill="#CC3333" width="3.8" height="34.5"/>
		</g>
		<g>
			<rect x="117.1" y="4.9" fill="#CC3333" width="3.8" height="34.5"/>
		</g>
		<g>
			<polygon fill="#CC3333" points="86.5,18.3 83.3,18.3 83.3,11.7 79.6,11.7 79.6,18.3 76.3,18.3 76.3,21.9 79.6,21.9 79.6,39.6 
				83.3,39.6 83.3,21.9 86.5,21.9 			"/>
		</g>
		<g>
			<path fill="#CC3333" d="M90.9,30c0.1,0.9,0.4,1.8,0.8,2.7c0.4,0.8,0.9,1.5,1.5,2.1c0.5,0.5,1.3,1.1,1.9,1.3
				c0.8,0.4,1.6,0.5,2.4,0.5c1.3,0,2.5-0.3,3.5-1c1.1-0.7,1.9-1.5,2.7-2.6l3,1.9c-1,1.6-2.3,2.8-3.9,3.8c-1.6,0.9-3.4,1.4-5.4,1.4
				c-1.3,0-2.7-0.3-3.8-0.8c-1.2-0.5-2.3-1.3-3.1-2.1c-0.9-0.9-1.7-1.9-2.3-3.3c-0.5-1.3-0.9-2.7-1.1-4.1c0-0.2,0-0.3-0.1-0.4
				c0-0.2-0.1-0.4-0.1-0.5c0-0.9,0.1-1.8,0.3-2.7c0.3-1.2,0.7-2.4,1.3-3.4c0.7-1.1,1.3-1.9,2.3-2.7c0.9-0.8,1.9-1.3,2.9-1.8
				c1.1-0.4,2.3-0.7,3.4-0.7s2.4,0.3,3.4,0.7c1.1,0.4,2.1,1.1,2.9,1.8c0.9,0.8,1.6,1.7,2.3,2.7c0.7,1.1,1.1,2.2,1.3,3.4
				c0.3,0.8,0.3,1.7,0.3,2.7c0,0.2,0,0.4,0,0.5s0,0.3-0.1,0.4L90.9,30L90.9,30z M103.9,26.3c-0.5-1.5-1.3-2.7-2.4-3.6
				c-1.2-0.9-2.4-1.3-4-1.3c-1.5,0-2.7,0.4-4,1.3c-1.2,0.9-1.9,2.1-2.4,3.6C91.2,26.3,103.9,26.3,103.9,26.3z"/>
		</g>
		<g>
			<path fill="#CC3333" d="M69.2,27c1.3,0.4,2.4,0.9,3.3,1.3c0.8,0.5,1.5,1.1,1.9,1.7c0.4,0.6,0.8,1.2,1,1.9
				c0.2,0.6,0.3,1.2,0.3,1.8c0,0.9-0.2,1.7-0.5,2.4c-0.4,0.8-0.8,1.3-1.4,1.9c-0.6,0.5-1.3,1-2.1,1.3s-1.7,0.5-2.7,0.5
				c-0.9,0-1.7-0.2-2.4-0.4c-0.8-0.3-1.4-0.7-1.9-1.2c-0.5-0.5-1.1-1.1-1.4-1.8c-0.4-0.7-0.6-1.3-0.7-2.2l2.1-0.5
				c0.3,0.9,0.8,1.7,1.5,2.4s1.8,1,2.9,1c0.5,0,1.1-0.1,1.7-0.3c0.5-0.2,1-0.4,1.3-0.8c0.4-0.3,0.7-0.7,0.9-1.1s0.3-0.9,0.3-1.3
				c0-1.9-1.5-3.3-4.5-4.1c-0.7-0.3-1.4-0.4-2.1-0.7c-0.7-0.3-1.3-0.6-1.9-1.1c-0.5-0.4-1.1-1-1.4-1.7c-0.4-0.7-0.5-1.5-0.5-2.5
				c0-0.9,0.2-1.7,0.4-2.4c0.3-0.8,0.7-1.3,1.3-1.9c0.5-0.5,1.2-0.9,1.9-1.3c0.8-0.3,1.6-0.4,2.5-0.4c0.8,0,1.6,0.2,2.4,0.4
				c0.7,0.3,1.3,0.7,1.9,1.2c0.5,0.5,1,1.1,1.3,1.8c0.3,0.7,0.5,1.3,0.7,2.2l-2.1,0.5c-0.2-1-0.6-1.8-1.3-2.4
				c-0.7-0.6-1.6-0.9-2.7-0.9c-1.2,0-2.1,0.3-2.7,0.9c-0.6,0.6-1,1.3-1,2.4c0,0.4,0.1,0.7,0.2,1s0.3,0.5,0.6,0.8
				c0.3,0.3,0.7,0.4,1.3,0.7C67.6,26.5,68.3,26.9,69.2,27z"/>
		</g>
	</g>
	<g>
		<g>
			<polygon fill="#CC3333" points="48.1,80.4 64.1,64.5 58.8,64.5 42.3,81.1 42.3,63.9 38.6,63.9 38.6,98.3 42.3,98.3 42.3,86.3 
				45.5,83.1 59.2,98.3 64.6,98.3 			"/>
		</g>
		<g>
			<path fill="#CC3333" d="M65.6,88.8c0.1,0.9,0.4,1.8,0.8,2.7c0.4,0.8,0.9,1.5,1.5,2.1c0.5,0.5,1.3,1.1,1.9,1.3
				c0.8,0.4,1.6,0.5,2.4,0.5c1.3,0,2.5-0.3,3.5-1c1.1-0.7,1.9-1.5,2.7-2.6l3,1.9c-1,1.6-2.3,2.8-3.9,3.8C76,98.5,74.3,99,72.3,99
				c-1.3,0-2.7-0.3-3.8-0.8c-1.2-0.5-2.3-1.3-3.1-2.1c-0.9-0.9-1.7-1.9-2.3-3.3c-0.5-1.3-0.9-2.7-1.1-4.1c0-0.2,0-0.3-0.1-0.4
				c0-0.2-0.1-0.4-0.1-0.5c0-0.9,0.1-1.8,0.3-2.7c0.3-1.2,0.7-2.4,1.3-3.4c0.7-1.1,1.3-1.9,2.3-2.7c0.9-0.8,1.9-1.3,2.9-1.8
				c1-0.5,2.3-0.7,3.4-0.7s2.4,0.3,3.4,0.7c1.1,0.4,2.1,1.1,2.9,1.8c0.9,0.8,1.6,1.7,2.3,2.7c0.7,1.1,1.1,2.2,1.3,3.4
				c0.3,0.8,0.3,1.7,0.3,2.7c0,0.2,0,0.4,0,0.5s0,0.3-0.1,0.4L65.6,88.8L65.6,88.8z M78.6,85.2c-0.5-1.5-1.3-2.7-2.4-3.6
				c-1.2-0.9-2.4-1.3-4-1.3s-2.7,0.4-4,1.3c-1.2,0.9-1.9,2.1-2.4,3.6H78.6z"/>
		</g>
		<g>
			<g>
				<path fill="#CC3333" d="M88.5,98.5h-3.8V77.2h3.5v3.5h0.1c1.5-2.5,3.4-4.2,6.4-4.2c0.4,0,0.7,0.1,1,0.1v3.7h-1.4
					c-3.5,0-5.8,2.7-5.8,5.7L88.5,98.5L88.5,98.5z"/>
			</g>
		</g>
		<g>
			<g>
				<path fill="#CC3333" d="M115,98.3h-3.4v-13c0-3.7-1.1-5.5-4.4-5.5c-1.9,0-5.4,1.3-5.4,7.1v11.5h-3.4V77.2h3.3v3h0.1
					c0.8-1.2,2.7-3.5,6.2-3.5c3.2,0,7.2,1.3,7.2,7.4L115,98.3L115,98.3z"/>
			</g>
		</g>
	</g>
	<g>
		<g>
			<path fill="#CC3333" d="M84.5,60.3H82l-1.5-1.8c-1.1,1.2-2.4,2.1-4.6,2.1c-4,0-4.7-2.8-4.7-4c0-2.1,0.7-3.3,3.5-4.9
				c-1.2-1.3-1.7-2.1-1.7-3.4c0-1.8,1.3-3.4,3.8-3.4c2.5,0,3.5,1.6,3.5,3.2c0,2.1-1.7,3.3-2.8,4l2.9,3.4c0.4-1,0.4-1.3,0.7-2.4h1.9
				c-0.1,1.1-0.4,2.4-1.3,4L84.5,60.3z M75.9,53.1c-1.7,1.1-2.7,1.8-2.7,3.4c0,1.9,1.9,2.5,2.8,2.5c1.3,0,2.7-0.6,3.4-1.7L75.9,53.1
				z M78.6,48.3c0-1.3-1.1-1.7-1.7-1.7c-1.7,0-1.9,1.2-1.9,1.7c0,1,1,2.1,1.6,2.7C77.4,50.4,78.6,49.6,78.6,48.3z"/>
		</g>
	</g>
</g>
</svg>
