<svg xmlns="http://www.w3.org/2000/svg" xmlns:xlink="http://www.w3.org/1999/xlink" version="1.1" id="Layer_1" x="0px" y="0px" viewBox="0 0 213 144" enable-background="new 0 0 213 144" xml:space="preserve">
<rect fill="#FFFFFF" width="213" height="144"/>
<g>
	<path fill="#0B0B0C" d="M190.9,76.2c0-5.3-0.3-10.6,0.1-15.9c0.3-4.3-3-5.7-5.2-8c-0.3-0.3-0.9-0.4-1.2-0.4   c-1.9,0.2-9.4,8.3-9.4,10.4c0,9,0,18,0,27c0,1.8,0.3,3.3,1.8,4.3c2.9,2,2.3,3.7-0.2,5.7c-7.7,6.4-7.6,6.4-15.8,0.5   c-3-2.1-4.4-3.8-0.7-6.4c1.4-1,1.9-2.5,1.9-4.2c-0.1-10.5,0-20.9-0.1-31.3c-0.1-5.4-0.7-5.8-6.2-4.6c-1,0.3-1.7,0.3-2.2-0.7   c-0.5-1.1,0.3-1.6,0.9-2.1c3.7-2.7,7.3-5.4,10.9-8.2c1.6-1.3,2.8-0.8,4.3,0.3c3.1,2.4,5,5.4,5.4,9.2c0.3,2.9,1.2,2.5,2.9,0.9   c4-3.5,8.1-6.8,12-10.4c1.8-1.6,3.1-1.8,4.8,0.1c1,1.2,2.5,2,3.6,3.3c2.8,3.3,5.5,4.6,8.5,0.2c0.6-0.9,1.8-1.8,2.9-0.4   c0.9,1.1,0.8,2.3-0.3,3.1c-6,4.4-5.6,10.8-5.4,17.2c0.2,7.9,0,15.9,0.3,23.8c0.2,4.8,1,5.1,5.5,3.6c1.1-0.3,2-0.5,2.7,0.6   c0.6,1-0.3,1.6-0.9,2.1c-3.8,2.9-7.7,5.9-11.6,8.7c-1.7,1.3-3.1,0.2-4.3-1c-3.1-3-4.8-6.6-4.8-11C191,87.1,190.9,81.6,190.9,76.2   L190.9,76.2z"/>
	<path fill="#0B0B0C" d="M93.1,91.3c-5.9,4.6-11,8.3-15.7,12.3c-2.8,2.5-4.8,2.1-7.1-0.4c-3.8-4.1-6.5-8.6-6.4-14.5   c0.1-10,0-20,0-30c0-3.2-0.3-6-4.7-3.8c-0.9,0.4-1.8,0.1-2.3-0.7c-0.9-1.2,0-2,0.8-2.6c3.6-3.1,7.2-6,10.7-9.1   c1.4-1.2,2.5-1.3,3.9,0c1.5,1.4,3.2,2.6,4.8,3.7c4.4,3.2,4.5,3.2,0.9,7.7c-0.9,1-1,2-1,3.2c0,9.1,0,18.3,0.1,27.4   c0,1.4,0.3,3,0.5,4.3c1.1,4.9,3.2,5.4,7.6,3c6.2-3.6,8.8-8.2,7.7-15.4c-0.7-4.8-0.3-9.7-0.1-14.5c0.1-3.9,0.3-7.7-3.4-10.3   c-1.2-0.9-1.2-2,0.1-2.8c0.3-0.3,0.7-0.5,1-0.9c10.6-8.6,6.8-7.6,17.8,0.3c2,1.4,2.1,2.7,0.2,4c-2.6,1.7-3,4.1-2.9,6.9   c0.2,10.1,0.2,20.3,0.4,30.5c0.2,5.1,0.9,5.4,5.6,3.7c1.1-0.4,2.1-0.6,2.7,0.5c0.6,1.2-0.3,1.9-1.2,2.5c-3.5,2.6-7.1,5.3-10.6,8   c-1.7,1.4-3.1,1-4.7-0.3C94.6,101,92.7,97.2,93.1,91.3z"/>
	<path fill="#0C0C0C" d="M23.5,54.9c4.7-3.7,9-7,13.2-10.3c4.3-3.4,5.5-3.2,8.6,1.4c8.7,12.7,7.1,26.9-4.4,37.8   c-7.7,7.2-16.7,12.8-26,18c-2.6,1.4-5.4,3.1-7.7,5c-4,3.2-3.6,7.7,0.6,10.6c5,3.4,10,3.1,14.5-1c0.5-0.5,1.1-0.9,1.6-1.5   c1.6-1.7,3.7-3.3,5.5-1.2c2,2.2,0.4,4.5-1.7,5.9c-6.6,4.1-13.7,5.1-21,1.8c-7.1-3.3-8.9-11.6-3.3-17.1C8.2,99.3,9.6,94,9.4,87.5   C9.1,78.2,9.3,69,9.2,59.7c0-1.4-0.2-3-0.7-4.3c-0.8-2-1.8-4-4.4-1.9c-0.9,0.7-1.9,1.1-2.7,0.1c-0.9-1.2-0.4-2.3,0.6-3.1   c3.3-2.6,6.6-5.4,10-7.8c1.8-1.3,3.6-0.4,5.3,0.7C21.3,46.1,22,50.3,23.5,54.9z"/>
	<path fill="#C5292D" d="M126.6,76.1c0-5-0.1-10,0-15c0.1-3.3,0.3-6.5-2.9-8.7c-1.3-0.9-0.9-2,0.1-3c0.7-0.6,1.4-1,2.1-1.6   c8.3-6.1,8.8-6,16.3,1.3c1.4,1.4,1.9,2.6,0,3.9c-2.6,1.8-3.1,4.3-3.1,7.3c0.1,9.9-0.1,19.7,0.1,29.5c0.1,5.5,0.5,5.7,5.8,4.7   c0.9-0.2,1.9-0.5,2.3,0.5c0.5,1-0.4,1.5-1.1,2c-3.5,2.6-7.1,5.3-10.5,8c-1.4,1.1-2.4,0.7-3.6-0.2c-4-2.9-5.8-6.9-5.8-11.7   c0-5.7,0-11.5,0-17.2C126.5,76.1,126.6,76.1,126.6,76.1z"/>
	<path fill="#C5292D" d="M141.7,21.1c1.2,0.2,2.8-0.8,3.6,0.7c0.8,1.4-0.7,2.4-1.4,3.4c-1.8,2.8-3.7,5.6-5.7,8.4   c-0.8,1.1-1.8,1.5-3.1,0.9c-1.1-0.7-0.9-1.9-0.4-2.7c1.4-2.1,1.2-4.5,1.8-6.8C137.3,22.1,138.3,20.1,141.7,21.1z"/>
	<path fill="#FEFEFE" d="M23.1,92.6c0-11.3,0-21.5,0-31.7c0-1.5,6.6-7.5,8.2-7.5c1.8,0,2.4,1.4,3.1,2.7c6,10.4,3.5,23.2-6.2,32.3   C26.8,89.5,25.4,90.6,23.1,92.6z"/>
</g>
</svg>