<?xml version="1.0" encoding="utf-8"?>
<!-- Generator: Adobe Illustrator 18.0.0, SVG Export Plug-In . SVG Version: 6.00 Build 0)  -->
<!DOCTYPE svg PUBLIC "-//W3C//DTD SVG 1.1//EN" "http://www.w3.org/Graphics/SVG/1.1/DTD/svg11.dtd">
<svg version="1.1" id="Layer_1" xmlns="http://www.w3.org/2000/svg" xmlns:xlink="http://www.w3.org/1999/xlink" x="0px" y="0px"
	 viewBox="0 0 152 103" enable-background="new 0 0 152 103" xml:space="preserve">
<rect fill="#FFFFFF" width="152" height="103"/>
<g>
	<path d="M134.5,23.4c0.9,0.1,1.6,0.1,2.4,0.1c4.8,0.3,9.6,0.9,14.3,1.9c0.1,0,0.1,0.1,0.3,0.1c-0.6,3.4-1.1,6.9-1.6,10.3
		c-1.2-0.2-2.4-0.4-3.5-0.6c-4.3-0.8-8.6-1.3-13.1-1.4c-2.9-0.1-5.7,0-8.5,0.3c-1.5,0.2-3,0.5-4.4,1.2c-2.4,1.2-3.7,3.1-4.3,5.6
		c-0.6,2.8-0.6,5.6,0,8.5c0.6,2.9,2.5,4.6,5.2,5.7c2.1,0.8,4.2,1.1,6.4,1.2c4.4,0.3,8.9-0.2,13.2-1c0.3-0.1,0.4-0.2,0.4-0.4
		c0-0.9,0-1.9,0-3c-2.8,0-5.5,0-8.3,0c0-2.6,0-5.1,0-7.7c6.3,0,12.7,0,19.1,0c0,0.1,0,0.3,0,0.4c0,6.1,0,12.2,0,18.3
		c0,0.3-0.1,0.4-0.4,0.6c-2.6,0.9-5.2,1.4-7.9,1.9c-3,0.6-6.1,1-9.1,1.1c-2.6,0.1-5.3,0.1-7.9,0c-2.5-0.1-4.9-0.4-7.4-0.7
		c-3.1-0.4-6-1.4-8.6-3.2c-3-2-4.6-4.9-5.7-8.3c-0.6-2.2-0.9-4.6-1-6.9c-0.1-2.6-0.1-5.3,0.3-7.9c0.4-3.3,1.4-6.3,3.5-9
		c1.9-2.5,4.4-4,7.3-5c2.1-0.8,4.4-1.2,6.6-1.4c2.4-0.2,4.9-0.3,7.3-0.5c0.1,0,0.1,0,0.2-0.1C130.9,23.4,132.7,23.4,134.5,23.4z"/>
	<path d="M0.1,65.5c0.5-1,1-2,1.4-3C5.6,54,9.6,45.5,13.6,37c1.9-4.1,3.9-8.1,5.8-12.2c0.1-0.3,0.3-0.3,0.6-0.3c4.6,0,9.1,0,13.7,0
		c0.3,0,0.4,0.1,0.6,0.3c3.9,8.2,7.9,16.4,11.9,24.6c2.6,5.4,5.2,10.7,7.8,16.1c0.1,0.1,0.1,0.2,0.1,0.3c-0.2,0-0.3,0-0.4,0
		c-3.9,0-7.7,0-11.6,0c-0.3,0-0.4-0.1-0.6-0.4c-1-2.2-2.1-4.4-3.1-6.5c-0.1-0.3-0.3-0.4-0.6-0.4c-7.2,0-14.5,0-21.7,0
		c-0.3,0-0.4,0.1-0.6,0.4c-0.9,2.2-1.9,4.4-2.9,6.6c-0.1,0.1-0.2,0.3-0.4,0.3c-4,0-7.9,0-11.9,0c-0.1,0-0.2,0-0.3-0.1
		C0.1,65.6,0.1,65.6,0.1,65.5z M34.1,49.5c-2.4-5.1-4.8-10.2-7.2-15.4c-2.4,5.2-4.6,10.3-7,15.4C24.6,49.5,29.3,49.5,34.1,49.5z"/>
	<path d="M83.2,79.5c0.1-0.3,0.3-0.5,0.4-0.8c0.1-0.2,0.1-0.3,0-0.6c-0.4-0.7-0.9-1.4-1.4-2C82.2,76,82.2,76,82,75.8
		c0.3,0,0.6,0,0.9,0c0.1,0,0.3,0.1,0.3,0.3c0.4,0.6,0.7,1.2,1.1,1.9c0.3-0.6,0.6-1,0.9-1.5c0.4-0.6,0.4-0.6,1.2-0.5
		c-0.8,1.2-1.5,2.5-2.2,3.6C83.9,79.5,83.6,79.5,83.2,79.5z"/>
	<path d="M70,39.6c0.4,0,0.9,0,1.2,0c0.1,0,0.3-0.1,0.4-0.2c5.1-4.8,10.1-9.6,15.2-14.5c0.4-0.3,0.7-0.5,1.2-0.5c5.3,0,10.7,0,16,0
		c0.1,0,0.3,0,0.6,0c-7.4,6.8-14.9,13.4-22.3,20.1c8.3,7,16.6,14,24.8,21v0.1c-0.1,0-0.3,0-0.4,0c-5.6,0-11.1,0-16.7,0
		c-0.2,0-0.5-0.1-0.6-0.3C83.5,60.2,77.6,55.1,71.7,50c-0.2-0.1-0.4-0.2-0.6-0.3c-0.3-0.1-0.6,0-0.9,0c0,5.3,0,10.6,0,15.8
		c-4.2,0-8.4,0-12.6,0c0-13.7,0-27.4,0-41.2c4.1,0,8.4,0,12.6,0C70,29.5,70,34.5,70,39.6z"/>
	<path d="M121.1,72.8c0,1.9,0,3.9,0,5.8c-0.4,0-0.9,0-1.4,0c0-2.3,0-4.6,0-6.9c0.9,0,1.6,0,2.4,0c0.1,0,0.2,0.2,0.3,0.3
		c0.9,1.6,1.9,3.4,2.8,5c0.1,0.1,0.1,0.3,0.3,0.4c0.2-0.3,0.3-0.6,0.4-0.9c0.9-1.5,1.7-3,2.5-4.6c0.1-0.2,0.3-0.3,0.5-0.3
		c0.7,0,1.4,0,2.1,0c0,2.3,0,4.6,0,6.9c-0.5,0-1,0-1.5,0c0-1.9,0-3.9,0-5.8h-0.1c-0.1,0.1-0.1,0.2-0.2,0.3c-0.9,1.7-1.9,3.4-2.9,5.2
		c-0.1,0.3-0.3,0.3-0.6,0.3c-0.3,0-0.7,0-1.1,0c-0.3,0-0.4-0.1-0.6-0.3c-0.9-1.7-1.9-3.4-2.9-5.2C121.2,73,121.1,73,121.1,72.8
		C121.2,72.8,121.2,72.8,121.1,72.8z"/>
	<path d="M145.3,78.6c-0.5,0-0.9,0-1.4,0c0-2.3,0-4.5,0-6.9c0.7,0,1.4,0,2.1,0c0.1,0,0.2,0.1,0.3,0.3c1.4,1.6,2.6,3.3,4,4.9
		c0.1,0.1,0.2,0.3,0.4,0.4c0-1.9,0-3.7,0-5.6c0.5,0,0.9,0,1.4,0c0,2.3,0,4.5,0,6.9c-0.7,0-1.4,0-2.1,0c-0.1,0-0.3-0.1-0.3-0.3
		c-1.4-1.7-2.9-3.5-4.2-5.2c0,0-0.1-0.1-0.1-0.1C145.3,74.9,145.3,76.7,145.3,78.6z"/>
	<path d="M110.3,71.8c1.9,0,3.6,0,5.4,0c0.4,0,0.8,0.1,1.1,0.3c0.6,0.3,0.9,0.8,0.9,1.4c0,0.6-0.4,1.1-0.9,1.4
		c-0.3,0.1-0.5,0.2-0.9,0.3c1.1,0.1,1.4,0.7,1.6,1.6c0.1,0.6,0.3,1.2,0.4,1.9c-0.5,0-1,0-1.5,0c-0.1,0-0.2-0.1-0.2-0.3
		c-0.2-0.6-0.3-1.1-0.4-1.7c-0.1-0.5-0.4-0.9-1-0.9c-0.9,0-1.9,0-2.9,0c0,0.9,0,1.9,0,2.9c-0.5,0-1,0-1.6,0
		C110.3,76.4,110.3,74.1,110.3,71.8z M111.9,74.7c0.9,0,1.9,0,2.7,0c0.3,0,0.6-0.1,0.9-0.1c0.4-0.1,0.6-0.4,0.6-0.9
		c0-0.4-0.2-0.7-0.6-0.9c-0.3-0.1-0.6-0.1-0.9-0.2c-0.9,0-1.8,0-2.6,0C111.9,73.5,111.9,74.1,111.9,74.7z"/>
	<path d="M95.9,75.6c-1.6,0-3.2,0-4.8,0c0,1,0,1.9,0,3c-0.6,0-1.1,0-1.6,0c0-2.3,0-4.6,0-6.9c0.5,0,1,0,1.6,0c0,0.9,0,1.9,0,2.8
		c1.6,0,3.2,0,4.9,0c0-0.9,0-1.9,0-2.8c0.6,0,1.1,0,1.6,0c0,2.3,0,4.6,0,6.9c-0.5,0-1,0-1.6,0C95.9,77.6,95.9,76.6,95.9,75.6z"/>
	<path d="M142.7,78.7c-0.6,0-1.1,0-1.7,0c-0.1,0-0.2-0.1-0.3-0.3c-0.3-0.4-0.4-0.8-0.7-1.1c-0.1-0.1-0.3-0.3-0.4-0.3
		c-1.4,0-2.9,0-4.4,0c-0.2,0-0.4,0.1-0.4,0.3c-0.2,0.4-0.4,0.8-0.7,1.1c-0.1,0.1-0.2,0.2-0.3,0.3c-0.5,0-1,0-1.6,0
		c0.1-0.1,0.1-0.3,0.2-0.4c1.4-2.1,2.6-4.1,3.9-6.3c0.1-0.2,0.3-0.3,0.4-0.3c0.1,0,0.1,0,0.2,0c0.5,0,1-0.1,1.4,0.1
		c0.4,0.2,0.5,0.8,0.8,1.1c1.1,1.8,2.1,3.5,3.2,5.2C142.5,78.3,142.6,78.5,142.7,78.7z M137.5,72.7c-0.6,1.1-1.3,2.1-1.9,3.2
		c1.3,0,2.5,0,3.8,0C138.7,74.9,138.1,73.9,137.5,72.7z"/>
	<path d="M98.7,78.7c0.1-0.2,0.1-0.3,0.2-0.4c1.3-2.1,2.6-4.1,3.9-6.2c0.1-0.3,0.3-0.3,0.6-0.3c0.3,0,0.6,0.1,0.9,0
		c0.6-0.1,0.9,0.1,1.1,0.6c1.2,1.9,2.4,3.9,3.6,5.9c0.1,0.1,0.1,0.2,0.2,0.4c-0.6,0-1.1,0-1.7,0c-0.1,0-0.2-0.1-0.3-0.3
		c-0.3-0.4-0.4-0.8-0.7-1.1c-0.1-0.1-0.3-0.2-0.4-0.3c-1.4,0-3,0-4.4,0c-0.1,0-0.3,0.1-0.4,0.3c-0.3,0.4-0.4,0.8-0.7,1.1
		c-0.1,0.1-0.3,0.3-0.4,0.3C99.7,78.7,99.2,78.7,98.7,78.7z M103.9,72.7c-0.6,1.1-1.3,2.1-1.9,3.2c1.3,0,2.5,0,3.8,0
		C105.2,74.9,104.5,73.9,103.9,72.7z"/>
	<path d="M77.7,74.7c0.3,0,0.5,0,0.9,0c0,0.5,0,0.9,0,1.5c0.6-0.5,1.4-0.6,2-0.4c0.8,0.2,1.1,0.6,1.2,1.3c0,0.7-0.4,1.2-1.1,1.4
		c-0.7,0.2-1.4,0.2-2.1-0.3c-0.1,0.5-0.5,0.3-0.9,0.3C77.7,77.2,77.7,76,77.7,74.7z M79.7,78.1c0.7,0,1.1-0.4,1.2-0.9
		c0-0.6-0.4-1-1.1-1s-1.1,0.4-1.1,0.9C78.6,77.7,79,78.1,79.7,78.1z"/>
</g>
</svg>
