<?xml version="1.0" encoding="utf-8"?>
<!-- Generator: Adobe Illustrator 18.0.0, SVG Export Plug-In . SVG Version: 6.00 Build 0)  -->
<!DOCTYPE svg PUBLIC "-//W3C//DTD SVG 1.1//EN" "http://www.w3.org/Graphics/SVG/1.1/DTD/svg11.dtd">
<svg version="1.1" id="Layer_1" xmlns="http://www.w3.org/2000/svg" xmlns:xlink="http://www.w3.org/1999/xlink" x="0px" y="0px"
	 viewBox="0 0 152 103" enable-background="new 0 0 152 103" xml:space="preserve">
<rect fill="#FFFFFF" width="152" height="103"/>
<g>
	<path fill="#70A086" d="M78,11.6c-4.4,7.6-8.8,15.1-13.1,22.7c0.3,0,0.4,0,0.6,0c4,0,7.9,0,11.8,0c0.3,0,0.5,0.1,0.7,0.4
		c0.6,1,1.2,2,1.7,3c0.1,0.1,0.1,0.3,0.2,0.4c-0.3,0-0.4,0-0.6,0c-5.4,0-10.7,0-16.1,0c-0.4,0-0.6,0.1-0.8,0.5
		c-0.9,1.6-1.9,3.2-2.8,4.8c-0.1,0.3-0.3,0.4-0.6,0.4c-1.5,0-2.9,0-4.4,0c-0.1,0-0.3,0-0.4,0c0.1-0.2,0.1-0.3,0.2-0.4
		C60.7,33,66.7,22.6,72.8,12.1c0.2-0.3,0.4-0.4,0.7-0.4C74.9,11.6,76.4,11.6,78,11.6z"/>
	<path fill="#70A086" d="M79.4,21.4c-0.6,1.1-1.2,2-1.8,3.1c-1.5,2.6-2.9,5.1-4.4,7.7c-0.1,0.3-0.3,0.4-0.6,0.4c-1.5,0-2.9,0-4.5,0
		c3.8-6.5,7.6-13.1,11.3-19.6c0.1,0.1,0.2,0.3,0.3,0.4c6.1,10.4,12.1,20.9,18.2,31.4c0.1,0.3,0.1,0.4,0,0.6
		c-0.8,1.2-1.6,2.3-2.5,3.5C90,39.7,84.7,30.6,79.4,21.4z"/>
	<path fill="#70A086" d="M93.6,49.7c-1.3,0-2.5-0.1-3.6,0c-1,0.1-1.5-0.3-1.9-1.1c-0.8-1.5-1.7-2.9-2.5-4.4
		c-0.1-0.3-0.3-0.4-0.6-0.4c-5.9,0-11.7,0-17.6,0c-0.3,0-0.5-0.1-0.6-0.4c-0.6-1-1.2-2-1.7-3c-0.1-0.1-0.1-0.3-0.3-0.4
		c6.1,0,12.2,0,18.4,0c-0.1-0.2-0.2-0.3-0.3-0.5c-1.9-3.3-3.8-6.6-5.7-9.9c-0.1-0.3-0.1-0.4,0-0.7c0.8-1.3,1.5-2.6,2.2-3.9
		C84.2,33.3,88.8,41.5,93.6,49.7z"/>
	<path fill="#70A086" d="M56,91.4c0-5.8,0-11.5,0-17.2c0.1,0,0.3,0,0.4,0c4.4,0,8.7,0,13.1,0c1.2,0,2.4,0.1,3.5,0.3
		c2.2,0.3,3.5,1.7,4,3.8c0.4,1.9,0.4,3.8,0.3,5.8c-0.1,1-0.1,2-0.4,3c-0.6,2.8-2.1,4-4.9,4.2c-1.8,0.1-3.5,0.1-5.3,0.1
		c-3.3,0-6.7,0-10,0C56.4,91.4,56.2,91.4,56,91.4z M58.3,76.3c0,4.4,0,8.8,0,13.1c0.2,0,0.3,0,0.4,0c3.1,0,6.2,0,9.3,0
		c1.1,0,2.2,0,3.3-0.1c1.3-0.1,2.4-0.5,2.9-1.8c0.1-0.3,0.3-0.7,0.4-1.1c0.4-1.7,0.4-3.5,0.3-5.2c-0.1-1-0.3-2.1-0.6-3.1
		c-0.2-0.9-0.9-1.4-1.7-1.6c-0.6-0.1-1.1-0.3-1.7-0.3c-4.1-0.1-8.3-0.1-12.4-0.1C58.5,76.2,58.4,76.2,58.3,76.3z"/>
	<path fill="#70A086" d="M137.5,83.5c0,2,0,4,0,6c4.9,0,9.7,0,14.5,0c0,0.7,0,1.3,0,2c-5.6,0-11.2,0-16.8,0c0-5.7,0-11.4,0-17.2
		c5.6,0,11.2,0,16.8,0c0,0.6,0,1.3,0,2c-4.9,0-9.7,0-14.5,0c0,1.8,0,3.5,0,5.2c4.6,0,9.2,0,13.9,0c0,0.7,0,1.3,0,2
		C146.8,83.5,142.1,83.5,137.5,83.5z"/>
	<path fill="#70A086" d="M84.9,91.4c0-5.7,0-11.4,0-17.1c5.6,0,11.2,0,16.8,0c0,0.6,0,1.3,0,1.9c-4.8,0-9.7,0-14.5,0
		c0,1.8,0,3.5,0,5.3c4.6,0,9.2,0,13.9,0c0,0.7,0,1.3,0,2c-4.6,0-9.2,0-13.9,0c0,2,0,3.9,0,5.9c4.8,0,9.7,0,14.5,0c0,0.7,0,1.3,0,2
		C96.1,91.4,90.6,91.4,84.9,91.4z"/>
	<path fill="#70A086" d="M124.4,76.2c-0.2,0-0.3,0-0.5,0c-4.7,0-9.5,0-14.1,0c-0.4,0-0.6-0.1-0.5-0.5c0.1-0.4,0-1,0-1.4
		c6.3,0,12.6,0,19,0c0,0.5,0,1.1,0,1.6c0,0.1-0.2,0.3-0.3,0.4c-3,2.6-6.1,5.2-9.1,7.8c-2,1.7-4,3.4-6,5.1c-0.1,0.1-0.2,0.1-0.3,0.2
		c0,0.1,0.1,0.1,0.1,0.1c5.2,0,10.4,0,15.7,0c0,0.6,0,1.3,0,2c-6.6,0-13.1,0-19.8,0c0-0.4,0-0.9,0-1.3c0-0.1,0.1-0.3,0.3-0.3
		c5.1-4.4,10.2-8.7,15.3-13.1c0.1-0.1,0.2-0.2,0.3-0.3C124.4,76.3,124.4,76.3,124.4,76.2z"/>
	<path fill="#70A086" d="M23,91.4c-0.8,0-1.6,0-2.4,0c-0.1,0-0.3-0.2-0.3-0.3c-0.6-1-1.2-2-1.7-3c-0.1-0.3-0.3-0.3-0.6-0.3
		c-4.4,0-8.8,0-13.2,0c-0.3,0-0.4,0.1-0.5,0.3c-0.6,1-1.2,2-1.7,3c-0.1,0.3-0.3,0.3-0.6,0.3c-0.7,0-1.4,0-2.2,0
		c0.1-0.2,0.1-0.3,0.2-0.4C3.3,85.4,6.4,80,9.5,74.5c0.1-0.2,0.3-0.3,0.5-0.3c1,0,2,0,3,0c0.3,0,0.4,0.1,0.5,0.3
		c3.1,5.5,6.2,11,9.3,16.5C22.9,91.1,23,91.2,23,91.4z M17.4,85.7c-0.1-0.2-0.1-0.3-0.2-0.4c-1.7-2.9-3.3-5.8-4.9-8.8
		c-0.1-0.3-0.3-0.4-0.6-0.4c-0.3,0-0.5,0.1-0.7,0.4c-1.7,2.9-3.3,5.8-5,8.8c-0.1,0.1-0.1,0.3-0.2,0.4C9.7,85.7,13.5,85.7,17.4,85.7z
		"/>
	<path fill="#70A086" d="M46.5,74.2c0.8,0,1.5,0,2.2,0c0,0.1,0,0.3,0,0.4c0,3.8,0,7.6-0.1,11.3c0,0.8-0.1,1.7-0.3,2.4
		c-0.4,1.6-1.5,2.6-3.1,2.8c-3.3,0.4-6.5,0.4-9.7,0.3c-1.3-0.1-2.6-0.1-3.8-0.3c-1.7-0.2-2.9-1.5-3.1-3.2c-0.1-1.7-0.2-3.5-0.2-5.3
		c-0.1-2.6,0-5.3,0-7.9c0-0.1,0-0.3,0-0.4c0.8,0,1.5,0,2.3,0c0,0.2,0,0.4,0,0.6c0,3.9,0,7.8,0.1,11.6c0,2,0.4,2.5,2.4,2.7
		c1.9,0.2,3.8,0.2,5.7,0.2c1.7,0,3.5-0.1,5.2-0.2h0.1c1.7-0.2,2.2-0.8,2.2-2.5c0.1-4,0.1-7.9,0.1-11.9
		C46.5,74.6,46.5,74.5,46.5,74.2z"/>
	<path fill="#70A086" d="M54.3,45.5c0.3,0,0.4,0,0.6,0c1.7,0,3.5,0,5.2,0c0.3,0,0.4-0.1,0.6-0.3c0.8-1.4,1.6-2.8,2.4-4.3
		c0.1,0.1,0.1,0.2,0.2,0.3c0.7,1.2,1.4,2.5,2.1,3.7c0.1,0.1,0.1,0.4,0,0.5c-0.7,1.3-1.5,2.6-2.2,3.8c-0.1,0.2-0.3,0.3-0.5,0.3
		c-1.8,0-3.6,0-5.4,0c-0.1,0-0.3-0.1-0.4-0.1C56.1,48.2,55.2,47,54.3,45.5z"/>
</g>
</svg>
