<?xml version="1.0" encoding="utf-8"?>
<!-- Generator: Adobe Illustrator 18.0.0, SVG Export Plug-In . SVG Version: 6.00 Build 0)  -->
<!DOCTYPE svg PUBLIC "-//W3C//DTD SVG 1.1//EN" "http://www.w3.org/Graphics/SVG/1.1/DTD/svg11.dtd">
<svg version="1.1" id="Layer_1" xmlns="http://www.w3.org/2000/svg" xmlns:xlink="http://www.w3.org/1999/xlink" x="0px" y="0px"
	 viewBox="0 0 152 103" enable-background="new 0 0 152 103" xml:space="preserve">
<rect fill="#FFFFFF" width="152" height="103"/>
<g>
	<g>
		<path d="M98,31.8c0,12.1-9.9,22.1-22.1,22.1c-12.1,0-22.1-9.9-22.1-22.1c0-12.1,9.9-22.1,22.1-22.1C88.1,9.8,98,19.6,98,31.8z
			 M75.9,12.1C65,12.1,56.2,21,56.2,31.8S65,51.5,75.9,51.5s19.7-8.9,19.7-19.7S86.9,12.1,75.9,12.1z"/>
		<path d="M75.9,12.9l-12,34.2L88.2,47L75.9,12.9z M84.4,45L77.1,45L80.6,34L84.4,45z M75.9,20.5l3.1,8.9L73.9,45l-6.4,0.1
			L75.9,20.5z"/>
	</g>
	<g>
		<path fill="#CCCCCC" stroke="#231F20" stroke-width="0.5" d="M26,86.7l-1.9-0.1c0.2-0.6,0.6-0.9,1.1-1.2c0.5-0.3,1.2-0.4,2.1-0.4
			s1.5,0.1,1.9,0.4c0.4,0.3,0.6,0.6,0.6,1.1c0,0.2,0,0.4-0.1,0.6c-0.1,0.2-0.2,0.7-0.4,1.6c-0.2,0.7-0.2,1.2-0.2,1.4
			s0.1,0.6,0.2,0.9h-1.9c-0.1-0.2-0.1-0.4-0.1-0.6c-0.2,0.2-0.6,0.4-0.9,0.6C26.1,91,25.8,91,25.4,91c-0.6,0-1-0.2-1.4-0.5
			c-0.4-0.3-0.6-0.7-0.6-1.2c0-0.6,0.2-1,0.6-1.4c0.4-0.4,1.1-0.6,2.2-0.6c0.9-0.1,1.4-0.1,1.8-0.2c0.1-0.2,0.1-0.4,0.1-0.6
			c0-0.2-0.1-0.3-0.2-0.4c-0.1-0.1-0.4-0.2-0.7-0.2s-0.6,0.1-0.8,0.2C26.1,86.3,26,86.5,26,86.7z M27.7,88.1c-0.1,0-0.2,0.1-0.4,0.1
			c-0.9,0.1-1.5,0.2-1.9,0.4c-0.2,0.1-0.3,0.3-0.3,0.6c0,0.2,0.1,0.4,0.2,0.5c0.2,0.1,0.4,0.2,0.6,0.2s0.6-0.1,0.8-0.2
			c0.2-0.1,0.4-0.2,0.6-0.4c0.1-0.2,0.2-0.5,0.3-0.9L27.7,88.1z"/>
		<path fill="#CCCCCC" stroke="#231F20" stroke-width="0.5" d="M30.7,90.9l2-8.1h1.9l-1.9,8.1H30.7z"/>
		<path fill="#CCCCCC" stroke="#231F20" stroke-width="0.5" d="M41.6,90.9h-1.8l-0.4-3.7l-2.1,3.7h-1.7L34.8,85h1.6l0.5,3.9l2.1-3.9
			h1.7l0.2,3.9l2.1-3.9H45L41.6,90.9z"/>
		<path fill="#CCCCCC" stroke="#231F20" stroke-width="0.5" d="M47.3,86.7l-1.9-0.1c0.2-0.6,0.6-0.9,1.1-1.2
			c0.5-0.3,1.2-0.4,2.1-0.4c0.9,0,1.5,0.1,1.9,0.4c0.4,0.3,0.6,0.6,0.6,1.1c0,0.2,0,0.4-0.1,0.6c-0.1,0.2-0.2,0.7-0.4,1.6
			c-0.2,0.7-0.2,1.2-0.2,1.4s0.1,0.6,0.2,0.9h-1.9c-0.1-0.2-0.1-0.4-0.1-0.6c-0.2,0.2-0.6,0.4-0.9,0.6C47.4,91,47.1,91,46.7,91
			c-0.6,0-1-0.2-1.4-0.5c-0.4-0.3-0.6-0.7-0.6-1.2c0-0.6,0.2-1,0.6-1.4c0.4-0.4,1.1-0.6,2.2-0.6c0.9-0.1,1.4-0.1,1.8-0.2
			c0.1-0.2,0.1-0.4,0.1-0.6c0-0.2-0.1-0.3-0.2-0.4c-0.1-0.1-0.4-0.2-0.7-0.2c-0.3,0-0.6,0.1-0.8,0.2C47.5,86.3,47.4,86.5,47.3,86.7z
			 M49,88.1c-0.1,0-0.2,0.1-0.4,0.1c-0.9,0.1-1.5,0.2-1.9,0.4c-0.2,0.1-0.3,0.3-0.3,0.6c0,0.2,0.1,0.4,0.2,0.5
			c0.2,0.1,0.4,0.2,0.6,0.2s0.6-0.1,0.8-0.2c0.2-0.1,0.4-0.2,0.6-0.4c0.1-0.2,0.2-0.5,0.3-0.9L49,88.1z"/>
		<path fill="#CCCCCC" stroke="#231F20" stroke-width="0.5" d="M52.6,85h1.9L55,88c0.1,0.7,0.2,1.3,0.2,1.6c0.2-0.6,0.6-1.2,1-1.9
			l1.6-2.6h1.9l-4.3,6.4c-0.4,0.6-0.6,0.9-0.9,1.1c-0.2,0.2-0.4,0.4-0.7,0.5c-0.3,0.1-0.6,0.2-1,0.2s-0.9-0.1-1.4-0.2l0.2-1.1
			C52,92,52.2,92,52.4,92c0.6,0,1-0.4,1.4-1.1L52.6,85z"/>
		<path fill="#CCCCCC" stroke="#231F20" stroke-width="0.5" d="M59.1,89.2l1.8-0.2c0.2,0.3,0.4,0.6,0.6,0.6c0.2,0.1,0.6,0.2,1,0.2
			s0.7-0.1,1-0.2c0.2-0.1,0.2-0.2,0.2-0.4c0-0.1-0.1-0.2-0.1-0.3c-0.1-0.1-0.4-0.2-0.8-0.3c-1.1-0.3-1.9-0.6-2.1-0.7
			c-0.4-0.3-0.6-0.6-0.6-1.1c0-0.5,0.2-0.9,0.6-1.2c0.6-0.5,1.4-0.7,2.5-0.7c0.9,0,1.5,0.1,2,0.4c0.4,0.3,0.7,0.6,0.9,1.1l-1.7,0.2
			c-0.1-0.2-0.2-0.4-0.4-0.5c-0.3-0.1-0.6-0.2-1-0.2s-0.6,0.1-0.9,0.2c-0.2,0.1-0.2,0.2-0.2,0.4s0.1,0.2,0.2,0.4
			c0.1,0.1,0.4,0.2,1,0.3c0.9,0.2,1.5,0.4,1.9,0.6c0.4,0.3,0.6,0.6,0.6,1.1c0,0.6-0.2,1-0.8,1.4c-0.6,0.4-1.4,0.6-2.3,0.6
			c-1,0-1.8-0.2-2.3-0.5C59.7,90.2,59.3,89.8,59.1,89.2z"/>
		<path fill="#CCCCCC" stroke="#231F20" stroke-width="0.5" d="M70.4,90.9l2-8.1h1.9l-1.9,8.1H70.4z"/>
		<path fill="#CCCCCC" stroke="#231F20" stroke-width="0.5" d="M75.5,85h1.9L75.9,91h-1.9L75.5,85z M76.1,82.8h1.9l-0.4,1.4h-1.9
			L76.1,82.8z"/>
		<path fill="#CCCCCC" stroke="#231F20" stroke-width="0.5" d="M77.5,89.2l1.8-0.2c0.2,0.3,0.4,0.6,0.6,0.6c0.2,0.1,0.6,0.2,1,0.2
			c0.4,0,0.7-0.1,1-0.2c0.2-0.1,0.2-0.2,0.2-0.4c0-0.1-0.1-0.2-0.1-0.3c-0.1-0.1-0.4-0.2-0.8-0.3c-1.1-0.3-1.9-0.6-2.1-0.7
			c-0.4-0.3-0.6-0.6-0.6-1.1c0-0.5,0.2-0.9,0.6-1.2c0.6-0.5,1.4-0.7,2.5-0.7c0.9,0,1.5,0.1,2,0.4c0.4,0.3,0.7,0.6,0.9,1.1l-1.7,0.2
			c-0.1-0.2-0.2-0.4-0.4-0.5c-0.3-0.1-0.6-0.2-1-0.2s-0.6,0.1-0.9,0.2c-0.2,0.1-0.2,0.2-0.2,0.4s0.1,0.2,0.2,0.4
			c0.1,0.1,0.4,0.2,1,0.3c0.9,0.2,1.5,0.4,1.9,0.6c0.4,0.3,0.6,0.6,0.6,1.1c0,0.6-0.2,1-0.8,1.4c-0.6,0.4-1.4,0.6-2.3,0.6
			s-1.8-0.2-2.3-0.5C78.1,90.2,77.7,89.8,77.5,89.2z"/>
		<path fill="#CCCCCC" stroke="#231F20" stroke-width="0.5" d="M85.6,86.2l0.3-1.1h0.9l0.2-0.9l2.1-1.1l-0.5,2h1.1l-0.3,1.1h-1.1
			l-0.6,2.4c-0.1,0.4-0.2,0.7-0.2,0.8c0,0.1,0.1,0.2,0.1,0.3s0.2,0.1,0.5,0.1c0.1,0,0.3,0,0.6-0.1l-0.3,1.1c-0.3,0.1-0.6,0.1-1,0.1
			c-0.6,0-1.1-0.1-1.4-0.3c-0.3-0.2-0.4-0.5-0.4-0.9c0-0.2,0.1-0.6,0.2-1.3l0.6-2.4L85.6,86.2L85.6,86.2z"/>
		<path fill="#CCCCCC" stroke="#231F20" stroke-width="0.5" d="M96.2,88.5h-4.6c0,0.1,0,0.1,0,0.1c0,0.4,0.1,0.7,0.4,1
			c0.2,0.2,0.6,0.4,1,0.4c0.6,0,1.1-0.2,1.4-0.8l1.6,0.2c-0.3,0.6-0.7,1-1.3,1.3c-0.6,0.3-1.1,0.4-1.9,0.4c-0.9,0-1.6-0.2-2.3-0.7
			c-0.6-0.5-0.9-1.1-0.9-2c0-0.8,0.2-1.5,0.8-2.1c0.7-0.9,1.7-1.3,3.1-1.3c0.9,0,1.5,0.2,2,0.6c0.5,0.4,0.7,1.1,0.7,1.9
			C96.3,87.8,96.3,88.1,96.2,88.5z M94.6,87.5c0-0.1,0-0.1,0-0.2c0-0.4-0.1-0.8-0.4-1S93.7,86,93.4,86c-0.4,0-0.7,0.1-1,0.4
			c-0.3,0.2-0.5,0.6-0.6,1.1L94.6,87.5L94.6,87.5z"/>
		<path fill="#CCCCCC" stroke="#231F20" stroke-width="0.5" d="M98.4,85h1.8l-0.2,0.8c0.4-0.3,0.9-0.6,1.2-0.6
			c0.4-0.1,0.8-0.2,1.2-0.2c0.6,0,1,0.1,1.4,0.4c0.3,0.3,0.5,0.6,0.5,1.1c0,0.2-0.1,0.6-0.2,1.1l-0.8,3.4h-1.9l0.8-3.4
			c0.1-0.5,0.2-0.8,0.2-0.9c0-0.2-0.1-0.4-0.2-0.5s-0.4-0.2-0.6-0.2c-0.2,0-0.6,0.1-0.9,0.3c-0.3,0.2-0.6,0.4-0.8,0.8
			c-0.1,0.2-0.3,0.6-0.5,1.4l-0.6,2.4h-1.9L98.4,85z"/>
		<path fill="#CCCCCC" stroke="#231F20" stroke-width="0.5" d="M106.4,85h1.9l-1.4,5.9h-1.9L106.4,85z M106.9,82.8h1.9l-0.4,1.4
			h-1.9L106.9,82.8z"/>
		<path fill="#CCCCCC" stroke="#231F20" stroke-width="0.5" d="M110.1,85h1.8l-0.2,0.8c0.4-0.3,0.9-0.6,1.2-0.6
			c0.4-0.1,0.8-0.2,1.2-0.2c0.6,0,1,0.1,1.4,0.4c0.3,0.3,0.5,0.6,0.5,1.1c0,0.2-0.1,0.6-0.2,1.1l-0.8,3.4h-1.9l0.8-3.4
			c0.1-0.5,0.2-0.8,0.2-0.9c0-0.2-0.1-0.4-0.2-0.5s-0.4-0.2-0.6-0.2c-0.2,0-0.6,0.1-0.9,0.3c-0.3,0.2-0.6,0.4-0.8,0.8
			c-0.1,0.2-0.3,0.6-0.5,1.4l-0.6,2.4h-1.9L110.1,85z"/>
		<path fill="#CCCCCC" stroke="#231F20" stroke-width="0.5" d="M116.6,91.2l1.9,0.2c0,0.2,0.1,0.3,0.1,0.4c0.1,0.1,0.2,0.2,0.3,0.2
			c0.1,0.1,0.4,0.1,0.6,0.1c0.4,0,0.7-0.1,0.9-0.2c0.2-0.1,0.3-0.2,0.4-0.5c0.1-0.1,0.2-0.5,0.2-0.9l0.1-0.3c-0.6,0.5-1.3,0.6-2,0.6
			c-0.6,0-1.2-0.2-1.6-0.6c-0.4-0.4-0.6-1-0.6-1.8c0-0.6,0.1-1.4,0.4-1.9c0.3-0.6,0.7-1,1.2-1.3c0.6-0.3,1.1-0.4,1.6-0.4
			c0.4,0,0.9,0.1,1.3,0.3c0.4,0.2,0.6,0.5,0.9,0.9l0.2-1h1.8l-1.2,4.9c-0.2,0.8-0.4,1.4-0.5,1.7c-0.1,0.4-0.3,0.6-0.5,0.8
			c-0.2,0.2-0.4,0.4-0.6,0.5c-0.2,0.1-0.6,0.2-0.9,0.3c-0.4,0.1-0.7,0.1-1.1,0.1c-1,0-1.7-0.1-2.2-0.4c-0.5-0.3-0.7-0.7-0.7-1.4
			C116.6,91.4,116.6,91.3,116.6,91.2z M118.8,88.4c0,0.4,0.1,0.8,0.4,1c0.2,0.2,0.6,0.4,0.9,0.4c0.3,0,0.6-0.1,0.9-0.3
			c0.3-0.2,0.6-0.5,0.6-0.9c0.2-0.4,0.2-0.8,0.2-1.1c0-0.4-0.1-0.7-0.4-1c-0.2-0.2-0.6-0.4-0.9-0.4c-0.3,0-0.6,0.1-0.9,0.4
			c-0.3,0.2-0.5,0.6-0.6,1C118.9,87.8,118.8,88.1,118.8,88.4z"/>
		<polygon fill="#CCCCCC" points="124.9,92.1 124.9,90.2 124.1,90.2 124.1,89.9 125.9,89.9 125.9,90.2 125.3,90.2 125.3,92.1 		"/>
		<polygon fill="#CCCCCC" points="126.2,92.1 126.2,89.9 126.9,89.9 127.4,91.4 127.7,89.9 128.4,89.9 128.4,92.1 128,92.1 
			128,90.3 127.5,92.1 127.1,92.1 126.6,90.3 126.6,92.1 		"/>
	</g>
	<g>
		<path d="M3.4,68.8l-3.1-0.6C0.6,67,1.2,66.1,2,65.5c0.9-0.6,2.1-0.9,3.8-0.9c1.5,0,2.6,0.2,3.4,0.6c0.7,0.4,1.3,0.9,1.6,1.4
			c0.3,0.6,0.4,1.6,0.4,3.1l-0.1,4c0,1.1,0.1,2,0.2,2.5c0.1,0.6,0.3,1.1,0.6,1.8H8.6c-0.1-0.2-0.2-0.6-0.3-1
			c-0.1-0.2-0.1-0.4-0.1-0.4c-0.6,0.6-1.2,1-1.9,1.3c-0.6,0.3-1.4,0.4-2.1,0.4c-1.4,0-2.4-0.4-3.1-1.1C0.4,76.5,0,75.5,0,74.5
			c0-0.7,0.2-1.4,0.6-1.9c0.4-0.6,0.9-1,1.4-1.4c0.6-0.3,1.5-0.6,2.7-0.8c1.6-0.3,2.6-0.6,3.3-0.9v-0.4c0-0.6-0.2-1.1-0.5-1.4
			c-0.4-0.5-1-0.6-1.9-0.6c-0.6,0-1.1,0.1-1.4,0.4C3.8,67.8,3.5,68.2,3.4,68.8z M7.9,71.6c-0.4,0.1-1.1,0.3-2.1,0.6
			c-1,0.2-1.6,0.4-1.9,0.6c-0.4,0.3-0.6,0.7-0.6,1.2c0,0.5,0.2,0.9,0.6,1.2c0.4,0.4,0.8,0.6,1.4,0.6c0.6,0,1.2-0.2,1.8-0.6
			c0.4-0.3,0.6-0.6,0.8-1.1c0.1-0.3,0.1-0.9,0.1-1.7L7.9,71.6L7.9,71.6z"/>
		<path d="M21.4,77.8v-1.9c-0.5,0.6-1.1,1.2-1.9,1.6c-0.8,0.4-1.6,0.6-2.4,0.6c-0.9,0-1.6-0.2-2.3-0.6c-0.6-0.4-1.1-0.9-1.4-1.6
			c-0.3-0.6-0.5-1.6-0.5-2.9v-8.3h3.4v5.9c0,1.9,0.1,2.9,0.2,3.4c0.1,0.4,0.4,0.7,0.6,1c0.3,0.2,0.7,0.4,1.3,0.4
			c0.6,0,1.1-0.2,1.6-0.5s0.8-0.7,1-1.2s0.2-1.6,0.2-3.5v-5.5h3.4v12.9L21.4,77.8L21.4,77.8z"/>
		<path d="M38.1,77.8H35V76c-0.6,0.7-1.1,1.3-1.9,1.6c-0.7,0.4-1.4,0.6-2.2,0.6c-1.4,0-2.7-0.6-3.8-1.9c-1.1-1.2-1.6-2.9-1.6-5.1
			c0-2.2,0.5-3.9,1.5-5c1-1.1,2.3-1.7,3.9-1.7c1.4,0,2.6,0.6,3.7,1.9V60h3.4V77.8L38.1,77.8z M29.1,71.1c0,1.4,0.2,2.4,0.6,3
			c0.6,0.9,1.4,1.4,2.3,1.4c0.8,0,1.4-0.4,2-1c0.6-0.6,0.9-1.7,0.9-3c0-1.4-0.2-2.6-0.8-3.2c-0.6-0.6-1.2-1-2.1-1
			c-0.8,0-1.4,0.3-2,1C29.3,68.8,29.1,69.8,29.1,71.1z"/>
		<path d="M39.8,63.1V60h3.4v3.1H39.8z M39.8,77.8V64.9h3.4v12.9C43.2,77.8,39.8,77.8,39.8,77.8z"/>
		<path d="M44.1,71.2c0-1.1,0.2-2.3,0.8-3.3c0.6-1.1,1.3-1.9,2.3-2.4c1-0.6,2.1-0.9,3.2-0.9c1.9,0,3.4,0.6,4.5,1.9
			c1.1,1.3,1.8,2.9,1.8,4.8s-0.6,3.6-1.8,4.9c-1.1,1.3-2.6,1.9-4.5,1.9c-1.1,0-2.2-0.2-3.1-0.8c-1-0.6-1.8-1.4-2.3-2.4
			C44.4,74,44.1,72.7,44.1,71.2z M47.4,71.3c0,1.3,0.3,2.3,0.9,3c0.6,0.6,1.3,1,2.1,1c0.9,0,1.5-0.4,2.1-1c0.6-0.6,0.9-1.7,0.9-3
			s-0.3-2.3-0.9-2.9c-0.6-0.6-1.3-1-2.1-1c-0.9,0-1.5,0.4-2.1,1C47.7,69.1,47.4,70,47.4,71.3z"/>
		<path d="M68.9,64.9v2.7H66v5.2c0,1,0,1.7,0.1,1.9c0.1,0.2,0.1,0.3,0.3,0.4c0.2,0.1,0.4,0.2,0.6,0.2c0.3,0,1.7,0,1.7,0v2.9
			c0,0-1.7,0-2.6,0c-0.6,0-1.1-0.1-1.6-0.3c-0.5-0.1-0.9-0.5-1.1-0.8s-0.4-0.8-0.5-1.4c-0.1-0.4-0.1-1.2-0.1-2.4v-5.6h-2.8V65h2.8
			v-2.6l3.4-2V65L68.9,64.9L68.9,64.9z"/>
		<path d="M77,73.8l3.2,0.6c-0.4,1.3-1.1,2.2-1.9,2.9c-0.9,0.6-2,1-3.4,1c-2.1,0-3.7-0.7-4.7-2.2c-0.8-1.1-1.2-2.6-1.2-4.4
			c0-2.1,0.6-3.9,1.6-5.1c1.1-1.2,2.4-1.9,4-1.9c1.9,0,3.3,0.6,4.3,1.9c1,1.3,1.6,3.2,1.5,5.9h-8.1c0,1,0.3,1.9,0.8,2.4
			c0.5,0.6,1.1,0.9,1.9,0.9c0.5,0,0.9-0.1,1.3-0.4C76.6,74.9,76.9,74.4,77,73.8z M77.2,70.2c0-1-0.2-1.8-0.7-2.3
			c-0.5-0.5-1-0.8-1.7-0.8S73.5,67.4,73,68c-0.5,0.6-0.6,1.3-0.6,2.3H77.2z"/>
		<path d="M92.5,68.8l-3.1,0.6c-0.1-0.6-0.4-1.1-0.6-1.5c-0.4-0.4-0.9-0.5-1.4-0.5c-0.8,0-1.4,0.3-1.9,0.9c-0.5,0.6-0.6,1.6-0.6,3
			c0,1.5,0.2,2.6,0.6,3.3c0.5,0.6,1.1,1,1.9,1c0.6,0,1.1-0.2,1.4-0.6c0.4-0.4,0.6-1,0.8-1.9l3.1,0.6c-0.3,1.5-0.9,2.7-1.9,3.5
			c-0.9,0.8-2.1,1.1-3.6,1.1c-1.7,0-3.1-0.6-4.1-1.9s-1.5-2.9-1.5-5s0.5-3.9,1.5-5c1-1.2,2.4-1.8,4.1-1.8c1.4,0,2.6,0.4,3.4,1
			C91.6,66.3,92.1,67.3,92.5,68.8z"/>
		<path d="M97.1,60v6.6c1.1-1.3,2.4-1.9,3.9-1.9c0.8,0,1.5,0.1,2.1,0.4c0.6,0.3,1.1,0.6,1.4,1.1c0.3,0.4,0.6,1,0.6,1.5
			c0.1,0.6,0.2,1.4,0.2,2.6v7.6H102V71c0-1.4-0.1-2.3-0.2-2.6c-0.1-0.4-0.4-0.6-0.6-0.9c-0.3-0.2-0.7-0.3-1.2-0.3
			c-0.6,0-1.1,0.1-1.5,0.4c-0.4,0.3-0.8,0.6-1,1.3c-0.2,0.6-0.3,1.4-0.3,2.5V78h-3.4V60.1L97.1,60L97.1,60z"/>
		<path d="M118.1,77.8h-3.4v-6.6c0-1.4-0.1-2.3-0.2-2.7s-0.4-0.7-0.7-1c-0.3-0.2-0.7-0.4-1.1-0.4c-0.6,0-1.1,0.2-1.6,0.5
			s-0.8,0.7-1,1.3c-0.2,0.6-0.2,1.5-0.2,3v5.9h-3.5V64.9h3.1v1.9c1.1-1.4,2.6-2.2,4.3-2.2c0.7,0,1.4,0.1,2.1,0.4
			c0.6,0.2,1.1,0.6,1.4,1c0.3,0.4,0.6,0.9,0.6,1.4c0.1,0.6,0.2,1.3,0.2,2.3L118.1,77.8L118.1,77.8z"/>
		<path d="M119.4,63.1V60h3.4v3.1H119.4z M119.4,77.8V64.9h3.4v12.9C122.8,77.8,119.4,77.8,119.4,77.8z"/>
		<path d="M134.7,68.8l-2.9,0.6c-0.1-0.6-0.3-1.1-0.6-1.5c-0.4-0.4-0.8-0.5-1.4-0.5c-0.7,0-1.4,0.3-1.8,0.9c-0.4,0.6-0.6,1.6-0.6,3
			c0,1.5,0.2,2.6,0.6,3.3c0.4,0.6,1,1,1.9,1c0.6,0,1-0.2,1.4-0.6c0.4-0.4,0.6-1,0.8-1.9l2.9,0.6c-0.3,1.5-0.9,2.7-1.8,3.5
			c-0.9,0.8-2,1.1-3.5,1.1c-1.6,0-3-0.6-3.9-1.9c-1-1.2-1.4-2.9-1.4-5s0.5-3.9,1.4-5c1-1.2,2.3-1.8,4-1.8c1.4,0,2.5,0.4,3.3,1
			C133.7,66.3,134.4,67.3,134.7,68.8z"/>
		<path d="M138.8,68.8l-3.1-0.6c0.4-1.3,1-2.2,1.8-2.8c0.9-0.6,2.1-0.9,3.8-0.9c1.5,0,2.6,0.2,3.4,0.6c0.7,0.4,1.3,0.9,1.6,1.4
			c0.3,0.6,0.4,1.6,0.4,3.1l-0.1,4c0,1.1,0.1,2,0.2,2.5c0.1,0.6,0.3,1.1,0.6,1.8h-3.3c-0.1-0.2-0.2-0.6-0.3-1
			c-0.1-0.2-0.1-0.4-0.1-0.4c-0.6,0.6-1.2,1-1.9,1.3s-1.4,0.4-2.1,0.4c-1.4,0-2.4-0.4-3.1-1.1c-0.8-0.7-1.1-1.6-1.1-2.7
			c0-0.7,0.2-1.4,0.6-1.9c0.4-0.6,0.9-1,1.4-1.4c0.6-0.3,1.5-0.6,2.6-0.8c1.6-0.3,2.6-0.6,3.3-0.9v-0.4c0-0.6-0.2-1.1-0.5-1.4
			c-0.3-0.3-0.9-0.4-1.9-0.4c-0.6,0-1.1,0.1-1.4,0.4C139.3,67.8,139.1,68.2,138.8,68.8z M143.4,71.6c-0.4,0.1-1.1,0.3-2.1,0.6
			c-1,0.2-1.6,0.4-1.9,0.6c-0.4,0.3-0.6,0.7-0.6,1.2c0,0.5,0.2,0.9,0.6,1.2c0.4,0.4,0.8,0.6,1.4,0.6c0.6,0,1.2-0.2,1.8-0.6
			c0.4-0.3,0.6-0.6,0.8-1.1c0.1-0.3,0.1-0.9,0.1-1.7L143.4,71.6L143.4,71.6z"/>
		<g>
			<path fill="#231F20" d="M150.1,74c0.4,0,0.6,0.1,1,0.2c0.3,0.2,0.6,0.4,0.7,0.7c0.2,0.3,0.2,0.6,0.2,1c0,0.4-0.1,0.6-0.2,1
				c-0.2,0.3-0.4,0.6-0.7,0.7c-0.3,0.2-0.6,0.2-1,0.2c-0.4,0-0.6-0.1-1-0.2c-0.3-0.2-0.6-0.4-0.7-0.7c-0.2-0.3-0.2-0.6-0.2-1
				c0-0.4,0.1-0.6,0.2-1c0.2-0.3,0.4-0.6,0.7-0.7C149.4,74,149.7,74,150.1,74z M150.1,74.3c-0.2,0-0.6,0.1-0.8,0.2
				c-0.2,0.1-0.4,0.3-0.6,0.6c-0.1,0.2-0.2,0.6-0.2,0.8c0,0.3,0.1,0.6,0.2,0.8c0.1,0.2,0.4,0.4,0.6,0.6c0.2,0.1,0.5,0.2,0.8,0.2
				s0.6-0.1,0.8-0.2c0.2-0.1,0.4-0.4,0.6-0.6c0.1-0.2,0.2-0.5,0.2-0.8c0-0.3-0.1-0.6-0.2-0.8s-0.4-0.4-0.6-0.6
				C150.6,74.4,150.3,74.3,150.1,74.3z M149.1,77V75h0.4c0.4,0,0.6,0,0.6,0c0.1,0,0.2,0.1,0.3,0.1c0.1,0.1,0.1,0.1,0.2,0.2
				c0.1,0.1,0.1,0.2,0.1,0.3c0,0.1-0.1,0.3-0.1,0.4c-0.1,0.1-0.2,0.2-0.4,0.2c0.1,0,0.1,0.1,0.1,0.1c0.1,0,0.1,0.1,0.1,0.2
				c0,0,0.1,0.1,0.2,0.2l0.2,0.4h-0.6l-0.2-0.4c-0.1-0.2-0.2-0.4-0.3-0.4c-0.1-0.1-0.2-0.1-0.3-0.1l0,0V77L149.1,77L149.1,77z
				 M149.6,75.8h0.2c0.2,0,0.4,0,0.5,0s0.1-0.1,0.1-0.1c0.1-0.1,0.1-0.1,0.1-0.2s0-0.1-0.1-0.2s-0.1-0.1-0.1-0.1c-0.1,0-0.2,0-0.4,0
				h-0.2L149.6,75.8L149.6,75.8z"/>
		</g>
		<rect x="57.9" y="69.6" width="3.6" height="3"/>
	</g>
</g>
</svg>
