<?xml version="1.0" encoding="utf-8"?>
<!-- Generator: Adobe Illustrator 18.0.0, SVG Export Plug-In . SVG Version: 6.00 Build 0)  -->
<!DOCTYPE svg PUBLIC "-//W3C//DTD SVG 1.1//EN" "http://www.w3.org/Graphics/SVG/1.1/DTD/svg11.dtd">
<svg version="1.1" id="Layer_1" xmlns="http://www.w3.org/2000/svg" xmlns:xlink="http://www.w3.org/1999/xlink" x="0px" y="0px"
	 viewBox="0 0 213 144" enable-background="new 0 0 213 144" xml:space="preserve">
<path fill-rule="evenodd" clip-rule="evenodd" d="M198,116.9c-2.1,0-3.8-1.7-3.8-3.8c0-2.1,1.7-3.8,3.8-3.8c2.1,0,3.8,1.7,3.8,3.8
	C201.8,115.2,200.1,116.9,198,116.9z M198,109.6c-1.9,0-3.5,1.6-3.5,3.5c0,1.9,1.6,3.5,3.5,3.5c1.9,0,3.5-1.6,3.5-3.5
	C201.4,111.2,199.9,109.6,198,109.6z M198.5,113.3c0.2,0.1,0.3,0.2,0.4,0.3c0.1,0.1,0.3,0.3,0.5,0.7l0.5,0.8h-1l-0.6-0.9
	c-0.2-0.3-0.4-0.5-0.4-0.6c-0.1-0.1-0.2-0.1-0.2-0.2c-0.1,0-0.2,0-0.4,0h-0.2v1.7h-0.8V111h1.7c0.4,0,0.8,0,1,0.1
	c0.2,0.1,0.4,0.2,0.5,0.4c0.1,0.2,0.2,0.4,0.2,0.6c0,0.3-0.1,0.6-0.3,0.8C199.1,113.1,198.9,113.3,198.5,113.3z M198.6,111.9
	c-0.1-0.1-0.2-0.1-0.3-0.2c-0.1,0-0.3,0-0.6,0h-0.6v1h0.6c0.4,0,0.6,0,0.7-0.1c0.1,0,0.2-0.1,0.2-0.2c0.1-0.1,0.1-0.2,0.1-0.3
	C198.7,112.1,198.7,112,198.6,111.9z M188,127.1c0,0,3.4,6,5.3,9c2,3,3.7,4.6,5.6,5.9h-3.1c-5.8-1.3-7.7-3.2-9.4-6.1
	c-1.8-2.9-6.9-11.6-6.9-11.6h2c1.7,0,2.7-0.5,3.2-1.1c0.5-0.5,1.9-2.5,1.9-5.3s-1.1-4.4-1.5-5c-0.5-0.6-1.6-1.9-3.9-1.9H178
	c-0.4,0.3-0.8,0.7-0.9,1v24.5c0.6,1.1,3.2,2.5,3.2,2.5h-12.1c0,0,2.6-1.4,3.2-2.5v-24.5c-0.6-1.1-3.2-2.5-3.2-2.5h15.2
	c2.1,0,4.3,0.5,6,1.5c1.8,1.1,3.1,3.2,3.1,6.7c0,3.5-1.6,5.6-2.7,6.4c-1.1,0.8-3.4,1.6-5.1,1.6C185.5,126.5,186.3,127,188,127.1z
	 M166.5,139h-12.1c0,0,2.6-1.4,3.2-2.5v-24.5c-0.6-1.1-3.2-2.5-3.2-2.5h12.1c0,0-2.6,1.4-3.2,2.5v24.5
	C163.9,137.6,166.5,139,166.5,139z M143.8,136.1l-2.6-6.6h-10.2l-2.7,6.8c0,1.1,3,2.7,3,2.7h-9.4c0,0,2.7-1.1,3.2-2.5
	c0.5-1.4,10.8-27,10.8-27h3.7c0,0,10.4,26.1,10.9,27.1c0.5,1.1,3,2.4,3,2.4h-13.1C140.3,139,143.8,137.3,143.8,136.1z M136,116.7
	l-4.2,10.6h8.5L136,116.7z M118.9,123.4c2,1.3,3.7,3.6,3.7,6.9c0,3.3-1.4,5.5-3.1,7c-1.8,1.5-4.6,2.5-7.9,2.5
	c-3.3,0-7.2-1.4-8.8-2.4v-7.3h0.9c0.7,2.1,1.5,4,3.2,5.6c1.7,1.6,3.4,2.1,5,2.1s3.4-0.8,3.7-1.3c0.4-0.5,1.4-1.3,1.4-3.7
	c0-2.4-1.3-3.5-3.3-4.6c-2-1.1-5.8-2.5-7.8-4.1c-2-1.6-3-3.9-3-6.6s1-4.5,2.7-6.2c1.7-1.7,4.2-2.5,7.6-2.5c3.4,0,6.1,1,7.9,2v6.7h-1
	c-0.3-1.9-1.2-3.5-2.4-5c-1.2-1.4-2.7-2-4.5-2c-1.8,0-2.6,0.5-3.4,1c-0.8,0.5-2.1,1.8-2.1,3.7s1.2,3.4,3,4.4
	C112.5,120.8,116.9,122.1,118.9,123.4z M92.3,127.1c0,0,3.4,6,5.3,9s3.7,4.6,5.6,5.9h-3.1c-5.8-1.3-7.7-3.2-9.4-6.1
	c-1.8-2.9-6.9-11.6-6.9-11.6h2c1.7,0,2.7-0.5,3.2-1.1c0.5-0.5,1.9-2.5,1.9-5.3s-1.1-4.4-1.5-5c-0.5-0.6-1.6-1.9-3.9-1.9h-3.3
	c-0.4,0.3-0.8,0.7-0.9,1v24.5c0.6,1.1,3.2,2.5,3.2,2.5H72.4c0,0,2.6-1.4,3.2-2.5v-24.5c-0.6-1.1-3.2-2.5-3.2-2.5h15.2
	c2.1,0,4.3,0.5,6,1.5c1.8,1.1,3.1,3.2,3.1,6.7c0,3.5-1.6,5.6-2.7,6.4c-1.1,0.8-3.4,1.6-5.1,1.6C89.7,126.5,90.6,127,92.3,127.1z
	 M68.2,135.4c-2.5,2.7-6.5,4.4-11,4.4c-4.5,0-8.3-2-10.4-4c-2.1-2.1-4.7-5.5-4.7-11.5c0-6,2.7-9.4,4.6-11.4c1.9-2,5.2-4,10.6-4
	c5.4,0,8.2,1.9,10.4,3.9c2.1,2,4.9,5.7,4.9,11.4S70.7,132.7,68.2,135.4z M63.8,114.4c-1.5-2-3.4-3.7-6.5-3.7c-3,0-5.5,2.2-6.7,4.3
	c-1.2,2.1-2.4,5.3-2.4,9s0.9,7.2,2.5,9.6c1.6,2.4,3.7,4.4,6.6,4.4c2.9,0,5-2,6.6-4.2c1.5-2.2,2.4-6,2.4-9.7
	C66.3,120.5,65.4,116.4,63.8,114.4z M27.8,139.8c-4.3,0-8.5-1.6-10.9-3.6c-2.4-2-5.7-5.4-5.7-12c0-6.6,3.7-10.2,5.3-11.7
	c1.7-1.5,5.9-3.7,11.4-3.7s9.1,1.8,11.3,3v8h-1.1c-0.7-3.8-3.6-9.1-9.3-9.1c-5.7,0-11.4,5.3-11.4,13.3c0,8,5.6,13.6,11.3,13.6
	c5.7,0,8.4-5,9.4-9.1h1.1v8C36.6,138.4,32.1,139.8,27.8,139.8z M109.6,2c2.7,5.6,6.8,14.7,6.8,23.4c6.6,2.3,19.8,7.7,23.4,17.8
	c0.8-1.1,1.5-3.4,1.5-5.6c0-6.8-6-15.5-13-21.8C121.2,9.4,113.5,4,109.6,2z M87.6,17.5c4.2,7.1,6.2,12.9,6.2,16.1
	c0,0.9-0.2,2.4-0.2,2.4c3.1,0.8,9,2.9,12.1,4.5c-0.6-3.7-2.1-9.2-4.3-14L87.6,17.5z M67.1,30.8c2.6,3.5,6,9.7,6,14.2
	c0,0.8-0.3,2-0.3,2c2.2,0.4,8.2,1.7,11.1,2.9c-0.5-3.4-2.4-9.2-3.8-12L67.1,30.8z M103.8,20.6c5,9.2,8.1,19.1,8.1,29.5
	s-2.7,19.7-7.2,28.1c1.4-4.3,2.7-11.6,2.7-19.7c0-8.1-0.6-10.1-0.6-10.1L83.2,32.9c2.9,6.3,5.4,14.4,5.4,24.6s-2.8,18.9-5.5,25.2
	c0.9-4.1,2-10.4,2-17.4s-0.6-8.6-0.6-8.6L62.4,44.9c2.7,4.7,5.3,12.4,5.3,21.7c0,9.2-3,21.7-13.5,33.6
	c47.2-19.8,66.5-21.9,77.5-21.9c11,0,17.2,3,19.2,8.4c1.7-2.4,5.1-8.8,5.1-14.8c0-6.9-4-11.9-12.7-20.1
	C134.5,43.6,113,26.6,103.8,20.6z"/>
</svg>
