<?xml version="1.0" encoding="utf-8"?>
<!-- Generator: Adobe Illustrator 18.0.0, SVG Export Plug-In . SVG Version: 6.00 Build 0)  -->
<!DOCTYPE svg PUBLIC "-//W3C//DTD SVG 1.1//EN" "http://www.w3.org/Graphics/SVG/1.1/DTD/svg11.dtd">
<svg version="1.1" id="Layer_1" xmlns="http://www.w3.org/2000/svg" xmlns:xlink="http://www.w3.org/1999/xlink" x="0px" y="0px"
	 viewBox="0 0 213 144" enable-background="new 0 0 213 144" xml:space="preserve">
<g>
	<g>
		<path fill="#ED6C00" d="M135,37.1c1.4,0.5,2.7,0.9,3.9,1.4c1.9,0.8,3.7,1.8,5.2,3.2c2.7,2.5,3.6,5.6,2.7,9.1
			c-0.6,2.4-1.9,4.6-3.3,6.6c-2.5,3.4-5.5,6.3-8.8,8.9c-5.7,4.6-11.9,8.3-18.7,11.2c-4.7,2-9.6,3.3-14.6,4.4
			c-3.4,0.7-6.8,1.3-10.3,1.7c-3.3,0.3-6.7,0.6-10,0.8c-3.6,0.2-7.2,0.2-10.9,0.1c0,0-0.1,0-0.1-0.1c0.4-0.1,0.7-0.1,1.1-0.2
			c9.5-1.5,18.6-4.3,27.2-8.7c3.3-1.7,6.6-3.6,9.5-5.9c0.1-0.1,0.2-0.1,0.3-0.2c-0.8-0.5-1.5-1-2.3-1.5c-1.5-1-2.9-2.2-4-3.6
			c-2.4-2.9-2.7-6-1.3-9.5c0.9-2.1,2.2-3.9,3.7-5.6c3.6-4.1,7.6-7.8,12.3-10.7c4.2-2.6,8.7-4.4,13.4-5.7c4.3-1.2,8.6-2,13.1-2.5
			c1.8-0.2,3.5-0.3,5.3-0.4C143.3,31.4,139.1,34.1,135,37.1z"/>
		<path fill="#ED6C00" d="M100,67.2c-1.5-0.5-3-0.8-4.5-0.8c-3.3-0.1-6.3,0.8-8.9,2.8c-0.6,0.5-1.2,0.9-1.9,1.2
			c-1.8,0.9-3.6,0.3-4.5-1.5c-0.4-0.9-0.6-1.8-0.7-2.8c0-0.4,0-0.7,0-1.1c0,0,0.1,0,0.1,0c0.6,1.1,1.6,1.2,2.6,0.6
			c0.7-0.4,1.3-0.9,1.8-1.5c0.5-0.5,0.6-1.2,0.7-1.9c0-1.8-0.5-3.4-1.2-5c-0.4-0.8-0.8-1.7-1.3-2.5c-0.7-1.2-1.7-1.6-3.2-1.3
			c-1.2,0.3-2.3,1-3.3,1.7c-0.9,0.7-1.8,1.5-2.7,2.2c-0.4,0.3-0.5,0.8-0.3,1.2c0.2,0.5,0.5,1,0.8,1.5c-0.4-0.1-0.8-0.1-1.2-0.2
			c-1.7-0.4-3.2-1.4-4.6-2.4c-0.9-0.7-1.7-1.4-2.5-2.1c-0.5-0.4-0.6-0.9-0.5-1.5c0.2-0.8,0.6-1.5,1.1-2.2c0.8-1,1.6-1.9,2.4-2.8
			c0.6-0.7,1.1-1.4,1.5-2.3c0.7-1.6,1.9-2.6,3.4-3.4c3.3-1.7,6.6-3.3,9.8-5.1c0.6-0.3,0.9-0.9,1.4-1.4c1.9-2,3.8-3.9,6.1-5.4
			c0.9-0.6,1.8-1.1,2.8-1.2c0.1,0,0.2,0,0.3,0c0.8,0,1.2,0.4,1,1.2c-0.3,1.2-0.6,2.5-0.9,3.7c-0.1,0.2-0.1,0.4-0.2,0.7
			c0.8-0.1,1.5-0.3,2.3-0.4c2-0.2,3.9-0.5,5.9-0.6c3.5-0.2,7-0.4,10.6-0.5c2.5-0.1,4.9-0.2,7.4-0.2c0.1,0,0.2,0,0.3,0.1
			c-0.1,0.1-0.2,0.2-0.4,0.2c-3.6,2.1-7.1,4.3-10.4,6.9c-3.1,2.5-6.1,5.2-8.4,8.4c-1.6,2.2-2.8,4.5-3.3,7.1c-0.8,3.8,0,7.3,2.5,10.3
			C99.9,67.1,99.9,67.1,100,67.2z M79.6,44.3c-1.3,0-2.5,0.3-3.6,0.8c-0.7,0.3-1.3,0.8-1.7,1.4c-0.2,0.3-0.2,0.6,0.2,0.7
			c0.4,0.1,0.8,0.1,1.1,0C77.2,46.6,78.4,45.5,79.6,44.3z"/>
	</g>
	<g>
		<path fill="#ED6C00" d="M173,113.8c0.3-0.6,0.5-1.2,0.7-1.7c2-4.5,3.9-9,5.9-13.5c1.2-2.8,3.4-4.4,6.3-5.1
			c0.9-0.2,1.9-0.3,2.8-0.2c0.1,0,0.2,0,0.4,0c7.8,0,15.6,0,23.4,0c0.1,0,0.3,0,0.4,0c-0.2,0.5-0.4,1-0.6,1.5
			c-1.3,3.1-2.6,6.1-3.9,9.2c-0.7,1.6-1.8,2.7-3.3,3.5c-1.2,0.7-2.6,1.1-4,1.4c-0.1,0-0.2,0-0.3,0.1c1.6,1.6,3.2,3.2,4.9,4.9
			c-0.2,0-0.2,0-0.3,0c-3.4,0-6.9,0-10.3,0c-0.1,0-0.3-0.1-0.4-0.2c-1.6-1.5-3.2-3-4.8-4.5c-0.1-0.1-0.3-0.2-0.4-0.2
			c-2.3,0-4.7,0-7,0c-0.2,0-0.3,0.1-0.4,0.2c-0.8,1.5-1.6,3-2.4,4.5c-0.1,0.1-0.1,0.2-0.3,0.2c-2.1,0-4.2,0-6.2,0
			C173.1,113.8,173.1,113.8,173,113.8z M200.6,99c-0.1,0-0.2,0-0.2,0c-3.7,0-7.4,0-11,0c-0.1,0-0.2,0-0.4,0
			c-1.5,0.3-2.5,1.3-3.2,2.6c-0.2,0.4-0.3,0.8-0.5,1.3c0.2,0,0.3,0,0.5,0c3.2,0,6.4,0,9.6,0c1.7,0,3-0.6,4.2-1.8
			C200,100.5,200.3,99.8,200.6,99z"/>
		<path fill="#ED6C00" d="M111.3,108.6c0.1,0,0.2,0,0.3,0c3.4,0,6.8,0,10.1,0c1.2,0,2.3-0.2,3.2-0.9c0.8-0.6,1.3-1.3,1.6-2.2
			c-2.9,0-5.9,0-8.8,0c0-0.1,0.1-0.2,0.1-0.4c0.6-1.4,1.2-2.7,1.7-4.1c0.1-0.2,0.2-0.3,0.4-0.3c5.9,0,11.8,0,17.7,0
			c0.1,0,0.2,0,0.3,0c-0.2,0.6-0.3,1.1-0.5,1.6c-0.8,2.3-1.8,4.5-2.9,6.7c-0.9,1.7-2.3,2.9-4.1,3.7c-1.7,0.7-3.4,1.1-5.2,1.1
			c-7.7,0-15.4,0-23.2,0c-0.1,0-0.2,0-0.4,0c0.2-0.5,0.4-1,0.6-1.5c1.9-4.5,3.8-9.1,5.7-13.6c1.3-3.1,3.7-4.8,6.9-5.5
			c0.9-0.2,1.8-0.3,2.7-0.3c7.8,0,15.6,0,23.3,0c0.1,0,0.3,0,0.5,0c0,0.1-0.1,0.2-0.1,0.3c-0.7,1.4-1.3,2.9-2,4.3
			c-0.1,0.3-0.3,0.4-0.6,0.4c-5.7,0-11.5,0-17.2,0c-1,0-2.1,0-3.1,0.2c-2,0.4-3.5,1.6-4.5,3.4c-0.4,0.8-0.7,1.7-1,2.6
			c-0.6,1.4-1.1,2.9-1.7,4.3C111.4,108.4,111.4,108.5,111.3,108.6z"/>
		<path fill="#ED6C00" d="M72.5,92.8c-0.6,1.5-1.1,2.8-1.7,4.2c-1.4,3.6-2.8,7.2-4.2,10.7c-1.2,2.8-3.1,4.9-6.1,5.7
			c-0.8,0.2-1.6,0.3-2.4,0.3c-4.6,0-9.2,0-13.8,0c-3.5,0-7,0-10.5,0c-0.1,0-0.2,0-0.4,0c0.3-0.7,0.5-1.4,0.8-2
			c1.8-4.6,3.6-9.1,5.4-13.7c0.6-1.4,1.6-2.4,2.8-3.2c1.5-1.1,3.3-1.6,5.1-1.8c1.1-0.1,2.2-0.2,3.3-0.2c6.6,0,13.3,0,19.9,0
			C71.3,92.8,71.8,92.8,72.5,92.8z M61.3,98c-0.1,0-0.2,0-0.2,0c-3.6,0-7.3,0-10.9,0c-0.9,0-1.7,0.1-2.5,0.5
			c-1.2,0.5-2.1,1.3-2.5,2.6c-0.7,2-1.4,3.9-2.1,5.8c-0.2,0.5-0.4,1-0.6,1.6c0.1,0,0.2,0,0.2,0c4,0,8,0,11.9,0
			c1.6,0,3.1-1.1,3.7-2.6c0.7-1.9,1.4-3.7,2.1-5.6C60.8,99.5,61.1,98.7,61.3,98z"/>
		<path fill="#ED6C00" d="M160.4,113.8c0-1.1,0-2.2,0-3.3c-0.1,0-0.2,0-0.3,0c-4.6,0-9.2,0-13.7,0c-0.2,0-0.4,0.1-0.5,0.2
			c-1.1,1-2.2,2-3.3,3c-0.1,0.1-0.2,0.1-0.3,0.1c-2.7,0-5.5,0-8.2,0c0,0-0.1,0-0.1,0c0.3-0.4,0.7-0.7,1-1.1c2.1-2,4.2-4.1,6.3-6.1
			c3.8-3.6,7.6-7.2,11.4-10.7c1.8-1.7,4-2.7,6.5-3c0.3,0,0.5,0,0.8,0c3.4,0,6.7,0,10.1,0c0.1,0,0.2,0,0.3,0c0,7,0,14,0,21
			C167,113.8,163.8,113.8,160.4,113.8z M159.9,105.4c0-2.3,0-4.6,0-7c-2.6,2.3-5.2,4.6-7.8,7C154.8,105.4,157.3,105.4,159.9,105.4z"
			/>
		<path fill="#ED6C00" d="M39.7,92.9c-0.4,1-0.8,1.9-1.1,2.8c-0.6,1.5-1.2,3-1.9,4.6c-0.1,0.2-0.1,0.3-0.3,0.3c-2.8,0-5.6,0-8.4,0
			c-0.1,0-0.1,0-0.2,0c0.3-0.9,0.6-1.8,0.9-2.8c-0.1,0-0.2,0-0.3,0c-3.1,0-6.2,0-9.3,0c-2.6,0-4.7,1.2-6.2,3.3
			c-0.3,0.4-0.5,0.9-0.7,1.4c-0.7,1.8-1.4,3.7-2.1,5.5c0,0.1,0,0.1-0.1,0.2c0.3,0,0.5,0,0.7,0c1.6,0,3.1,0,4.7,0.1
			c1.6,0,3.2,0,4.8,0c1.6,0,3.1-0.4,4.3-1.5c0.3-0.3,0.6-0.6,0.9-1c0.1-0.1,0.2-0.2,0.3-0.2c3,0,5.9,0,8.9,0c0,0,0.1,0,0.1,0
			c-0.1,0.3-0.2,0.7-0.3,1c-1.1,2.9-3.1,4.8-5.9,6c-1.8,0.8-3.7,1.1-5.6,1.1c-7.3,0-14.7,0-22,0c-0.2,0-0.5,0-0.7,0
			c0.2-0.6,0.4-1.1,0.7-1.6c2-4.8,4-9.7,6-14.5C7.3,96,8.5,95,10,94.3c1.6-0.8,3.3-1.1,5-1.3c1.2-0.1,2.4-0.1,3.6-0.1
			c6.9,0,13.8,0,20.7,0C39.4,92.9,39.5,92.9,39.7,92.9z"/>
		<path fill="#ED6C00" d="M67.1,113.8c0.3-0.8,0.6-1.5,1-2.3c1.9-4.7,3.9-9.3,5.8-14c0.7-1.6,1.9-2.6,3.3-3.4
			c1.6-0.8,3.3-1.2,5.1-1.3c0.2,0,0.4,0,0.6,0c0,0,0.1,0,0.1,0c-2.1,5.2-4.2,10.3-6.3,15.5c0.2,0,0.3,0,0.4,0c3.6,0,7.2,0,10.8,0
			c1.7,0,2.9-0.6,3.9-1.9c0.4-0.6,0.8-1.2,1.1-1.9c1.6-3.8,3.2-7.6,4.8-11.5c0.1-0.2,0.2-0.3,0.5-0.3c3.1,0,6.2,0,9.3,0
			c0.1,0,0.2,0,0.4,0c-0.1,0.3-0.2,0.5-0.3,0.7c-2.1,4.9-4.2,9.8-6.3,14.7c-1.2,2.8-3.3,4.5-6.3,5.2c-0.8,0.2-1.7,0.3-2.6,0.3
			c-8.3,0-16.6,0-24.9,0C67.4,113.8,67.2,113.8,67.1,113.8z"/>
	</g>
</g>
</svg>
