<?xml version="1.0" encoding="utf-8"?>
<!-- Generator: Adobe Illustrator 18.0.0, SVG Export Plug-In . SVG Version: 6.00 Build 0)  -->
<!DOCTYPE svg PUBLIC "-//W3C//DTD SVG 1.1//EN" "http://www.w3.org/Graphics/SVG/1.1/DTD/svg11.dtd">
<svg version="1.1" id="Layer_1" xmlns="http://www.w3.org/2000/svg" xmlns:xlink="http://www.w3.org/1999/xlink" x="0px" y="0px"
	 viewBox="0 0 152 103" enable-background="new 0 0 152 103" xml:space="preserve">
<g>
	<g id="Layer_1_1_">
		<rect fill="#FFFFFF" width="152" height="103"/>
		<polygon fill="#73001C" points="68.8,73.4 59.3,73.4 76.7,53.9 92.7,45.8 		"/>
		<polygon fill="#B3002A" points="76.8,53.9 59.2,34.2 59.2,8.4 92.9,45.8 		"/>
		<path d="M0.2,82.6c0.3-2.5,2.2-3.3,4.6-3.3h5V81H5.2c-2.9,0-3.4,0.5-3.4,3.4c0,0.9,0,1.9,0.1,2.8C2,88.2,2.9,89,4,89
			c1.7,0,3.3,0,5,0c1.2,0,2.3-0.9,2.3-2.1c0-0.1,0-0.2,0-0.3c0-3.6,0-11,0-11h1.6c0,0,0,7.5,0,10.9c0,2.3-1.2,3.9-3.4,4.1
			c-2,0.2-4,0.2-6.1,0c-1.7,0-3.2-1.3-3.3-3C-0.1,85.9,0,84.2,0.2,82.6z"/>
		<path d="M125.6,90.6H124v-6.3c0,0-5.2-0.1-7.4,0c-1.3,0-2.4,1.1-2.4,2.4c0,1.3,1.1,2.4,2.4,2.4c1.8,0,5.3,0,5.3,0v1.6
			c-2.2,0.1-4.5,0-6.7-0.2c-1.6-0.2-2.7-2.3-2.6-4.2c0.1-1.8,1.4-3.3,3.1-3.4c2.5-0.2,5-0.1,7.4-0.2h0.7c-0.1-1-0.9-1.7-1.9-1.7
			c-2.2,0-7.4,0-7.4,0v-1.7c0,0,4.4-0.1,6.6,0c1,0,2,0.3,2.9,0.7c1.2,0.6,1.6,1.8,1.6,3C125.7,85.3,125.6,90.6,125.6,90.6z"/>
		<path d="M25.3,82.5c-0.1-1-1-1.7-2-1.7H16v-1.7h3.6c1.5,0,3.1,0,4.6,0.2c1.5,0.3,2.7,1.5,2.9,3.1c0.1,2.7,0,8.2,0,8.2h-1.6v-6.3
			c0,0-5.3-0.1-7.7-0.1c-1.2,0-2,1-2,2.4c0,1.2,0.9,2.1,2,2.3c1.8,0,3.7,0,5.6,0v1.6c-0.1,0-4.2,0.1-6.1-0.1
			c-1.8-0.2-3.1-1.7-3.1-3.4c-0.1-3,1.4-4.5,4.4-4.5C20.5,82.5,25.1,82.5,25.3,82.5z"/>
		<path d="M60.3,87.1v-1.7h3.6c1.6,0,2.5-0.9,2.5-2.4c0-1.5-1-2.4-2.5-2.3c-1.7,0-3.4,0.1-5.1,0.1c-1.1,0-2.1,0.8-2.1,2
			c0,0.1,0,0.1,0,0.2c0,1.2,0,2.4,0,3.6c-0.1,1.2,0.9,2.3,2.1,2.3c0.1,0,0.2,0,0.3,0h7.9v1.7c0,0-5.5,0-7.9,0
			c-2.1,0.1-3.9-1.4-4-3.5c0-0.2,0-0.3,0-0.5c0-1.6,0-3.1,0.2-4.7c0.2-1.5,1.4-2.7,3-2.7c2.3-0.2,4.6-0.2,6.8,0
			c2.6,0.2,4.1,3.6,2.6,6c-0.7,1.2-1.9,1.9-3.3,1.9C62.9,87.1,60.3,87.1,60.3,87.1z"/>
		<path d="M87.3,81v-1.7h2.1c0,0,2.6,0,3.9,0c1.8,0,3.3,1.1,3.6,2.9c0.2,1.8,0.3,3.7,0.1,5.6c-0.2,1.7-1.5,2.8-3.4,2.9
			c-2,0.1-4,0-6.1-0.1c-1.9-0.1-3.2-2-3.3-3.7c-0.1-3.7,0-11.2,0-11.2h1.6c0,0,0,7.6,0,11c-0.1,1.2,0.9,2.3,2.1,2.4
			c0.1,0,0.1,0,0.2,0c1.7,0,3.5,0,5.2,0c1,0.1,1.8-0.7,1.9-1.7c0.1-1.5,0.1-3.1-0.1-4.6C95,81.5,94.2,81,93,81
			C91.1,81,87.3,81,87.3,81z"/>
		<path d="M148.9,79.4V81h-3.6c-0.8,0-1.6,0-2.4,0c-1.2,0-2.1,1-2.1,2.1c0,1.2,0,2.5,0,3.7c-0.1,1,0.7,1.9,1.7,2
			c2,0.1,3.9,0.1,5.9,0c1.2-0.1,1.9-1.1,1.9-2.4c0-3.4,0-10.9,0-10.9h1.6c0,0,0,7.4,0,10.7c0,2.7-1.6,4.4-4.4,4.4
			c-1.8,0-3.6,0-5.4-0.1c-1.5,0-2.8-1.1-3-2.6c-0.2-2-0.2-4,0.1-5.9c0.2-1.5,1.7-2.6,3.3-2.6C144.7,79.2,148.9,79.4,148.9,79.4z"/>
		<polygon points="54.2,89.3 54.2,90.7 52.8,90.7 43.4,86 43.4,90.6 41.8,90.6 41.8,75.6 43.3,75.6 43.3,83.8 52.9,79.3 54.2,79.3 
			54.2,80.6 45,84.9 		"/>
		<path d="M101.5,90.5c-1.5-0.2-2.8-1.4-3-3c-0.2-1.8-0.2-3.6,0-5.3c0.2-1.8,1.6-2.9,3.6-3c2-0.1,4-0.1,6,0.1c2,0.2,3.2,1.5,3.3,3.6
			c0.1,1.5,0,3.1-0.1,4.6c-0.2,1.8-1.7,3.2-3.5,3.2C106.8,90.7,102.6,90.7,101.5,90.5z M104.9,88.9c0,0,1.8,0,2.6,0c1.1,0,2-1,2-2.1
			c0-1.3,0-2.5,0-3.8c0.1-1.2-0.8-2.2-2-2.2c-0.1,0-0.2,0-0.2,0c-1.7,0-3.3,0-5,0c-1.2,0-2,0.5-2.2,1.6c-0.2,1.5-0.2,3.1-0.1,4.6
			c0.1,1.3,0.9,1.8,2.2,1.8C103.3,89,104.1,88.9,104.9,88.9L104.9,88.9z"/>
		<path d="M39.3,79.2v1.7c0,0-6.4,0-7.9,0c-0.7-0.1-1.3,0.4-1.4,1.1c0,0.1,0,0.2,0,0.3c0,1,0.5,1.6,1.4,1.6c1.7,0,2.9,0,5,0
			c2.4,0,3.8,1.9,3.3,4.2c-0.4,1.7-1.4,2.4-3.1,2.4h-7.9V89h1.1c2.2,0,4.3,0,6.5,0c1.1,0,1.6-0.6,1.6-1.8c0-1.1-0.5-1.6-1.6-1.6
			c-1.7,0-3.5,0-5.2,0c-1.8-0.1-3.1-1.7-3-3.5c0.1-1.6,1.4-2.9,3-3c2.4,0,7.3,0,7.3,0L39.3,79.2L39.3,79.2z"/>
		<path d="M80.7,79.2h1.7v0.7c0,0,0,7,0,10.5c0,2.7-1.5,4.1-4.1,4.1h-7v-1.7c0,0,4.5-0.1,6.7,0c2.2,0.1,2.9-1.2,2.9-2.9
			C80.7,86.5,80.7,79.2,80.7,79.2z"/>
		<path d="M127.6,90.6c0,0-0.1-5.6,0-8.4c0.2-1.7,1.6-3,3.2-3c2.6-0.1,7.8,0,7.8,0v1.7h-7.1c-1.2-0.1-2.3,0.8-2.4,2.1
			c0,0.1,0,0.3,0,0.4c0,2.4,0,7.3,0,7.3L127.6,90.6L127.6,90.6z"/>
		<path d="M69.3,79.2H71c0,0,0,5.8,0,7.5c0,1.2,0.9,2.1,2,2.2c0,0,0,0,0.1,0c1.8,0,5.4,0,5.4,0v1.7c0,0-4.7,0.1-5.9,0
			c-1.8-0.2-3.1-1.6-3.2-3.4C69.2,84.5,69.3,79.2,69.3,79.2z"/>
	</g>
</g>
</svg>
