<?xml version="1.0" encoding="utf-8"?>
<!-- Generator: Adobe Illustrator 18.0.0, SVG Export Plug-In . SVG Version: 6.00 Build 0)  -->
<!DOCTYPE svg PUBLIC "-//W3C//DTD SVG 1.1//EN" "http://www.w3.org/Graphics/SVG/1.1/DTD/svg11.dtd">
<svg version="1.1" id="Layer_1" xmlns="http://www.w3.org/2000/svg" xmlns:xlink="http://www.w3.org/1999/xlink" x="0px" y="0px"
	 viewBox="0 0 213 144" enable-background="new 0 0 213 144" xml:space="preserve">
<g>
	<path fill="#83C241" d="M179,62.9v6.6h-4.5c-2.1,0-4,0.2-5.4,0.5c-1.5,0.3-2.8,0.9-3.9,1.5c-2.2,1.3-3.3,3-3.3,5.1
		c0,1.9,1.1,3.5,3.2,4.9c1.3,0.8,2.7,1.4,4.2,1.7c1.5,0.3,3.5,0.5,5.9,0.5h4v6.5h-6c-5.4,0-9.9-0.6-13.3-1.9
		c-4.3-1.6-7.4-3.9-9.2-6.9c-0.9-1.5-1.3-3.1-1.3-4.6c0-2.1,0.7-4.2,2.3-6.1c1.2-1.5,2.7-2.8,4.6-3.9c2.7-1.7,6-2.7,9.9-3.2
		c2.2-0.3,4.8-0.4,7.6-0.4h5.5V62.9z"/>
	<path fill="#83C241" d="M191.4,53.6v15.8l0.1,0.3c4,0.5,8.5-0.4,10.5-4.2c1.1-1.5,1.3-2.6,1.3-2.6h9c1.6,4.6-2.4,8.8-6.5,10.4
		c6.6,4.3,7.3,8.9,7.1,16.8h-10.7c0.2-6.3-0.9-13.7-10.9-13l0.1,13h-11.3V53.6H191.4L191.4,53.6z"/>
	<path fill="#83C241" d="M45.1,90.4h20.6l1.7-0.1c6.8-0.2,11.4-5.5,11.4-11.4c0.1-6.6-6-10.5-12.8-10.5H54.3h-0.6
		c-1.8,0-3.1-1.5-3.2-3.2c-0.1-1.8,1.4-3.8,3.5-3.8h22.8v-7.8H53.6c-8.9,0-12.7,5-12.8,10.9c-0.2,5.8,4.6,11.6,11.4,11.6h12.7
		l1.4,0.1c1.7,0.2,2.8,1.4,2.9,2.9c0.2,1.8-1.7,3.5-3.8,3.5l-25.2,0.1l0.2-29.1H24.8c-4.9-0.1-7.4,2.9-9.2,7L0,90.3l0.9,0.1
		l11.5-0.1c4-8.4,8.1-16.8,12.2-25.2c1.5-2.7,2.4-3.1,5.2-2.8v28.1H45.1L45.1,90.4z"/>
	<path fill="#83C241" d="M97.6,53.6c3,0.1,5.4-0.2,7.3,0.4c4.2,1.2,6.4,3,7.5,5.2c0.6,1.3,0.8,2.6,0.8,3.9c0,2.6-0.7,4.7-2.4,6.3
		c-0.8,0.7-1.5,1.3-2.5,1.7c-0.9,0.4-2.4,0.9-4,1.3c6.8,3.8,8.5,7.9,8.5,17.6h-11.7c-0.1-6.8-1.9-10.8-5.9-12.5v-9.7h1.9
		c1.9,0,3.1-0.4,3.7-1c0.5-0.5,0.7-1.2,0.7-1.8c0-0.9-0.3-1.5-1-2c-0.6-0.4-1.8-0.7-3.2-0.7h-2.1v-8.7H97.6L97.6,53.6z M95.2,77.5
		c-1.7-0.7-3.8-1.1-6.3-1.1v13.7h-8.8V53.6h15.1v8.7h-6.3v5.5h6.3V77.5L95.2,77.5z"/>
	<path fill="#83C241" d="M130.5,82.3c3.5,0,6.2-2.6,6.2-5.8c0-3.2-2.8-5.8-6.2-5.8c-3.4,0-6.2,2.6-6.2,5.8
		C124.3,79.7,127.1,82.3,130.5,82.3L130.5,82.3z"/>
	<path fill="#83C241" d="M130.5,62.9c10,0,18.1,6.1,18.1,13.6c0,7.5-8.1,13.6-18.1,13.6v-5.9c4.6,0,8.3-3.5,8.3-7.7
		c0-4.3-3.7-7.7-8.3-7.7V62.9L130.5,62.9z M130.5,90.1c-9.9,0-18-6.1-18-13.6c0-7.5,8.1-13.6,18-13.6v6c-4.5,0-8.3,3.5-8.3,7.7
		c0,4.2,3.7,7.7,8.3,7.7V90.1L130.5,90.1z"/>
</g>
</svg>
