<?xml version="1.0" encoding="utf-8"?>
<!-- Generator: Adobe Illustrator 18.0.0, SVG Export Plug-In . SVG Version: 6.00 Build 0)  -->
<!DOCTYPE svg PUBLIC "-//W3C//DTD SVG 1.1//EN" "http://www.w3.org/Graphics/SVG/1.1/DTD/svg11.dtd">
<svg version="1.1" id="Layer_1" xmlns="http://www.w3.org/2000/svg" xmlns:xlink="http://www.w3.org/1999/xlink" x="0px" y="0px"
	 viewBox="0 0 152 103" enable-background="new 0 0 152 103" xml:space="preserve">
<rect fill="#FFFFFF" width="152" height="103"/>
<g>
	<polygon points="7.2,59.8 19.8,59.8 21.5,62.7 0,62.7 23.6,45.7 26.4,45.7 35.9,62.8 24.8,62.7 18.5,51.6 	"/>
	<polygon points="91.7,54.2 86.9,45.7 98,45.7 101.7,52.2 110.7,45.7 114.6,45.7 102.8,54.2 107.6,62.7 96.5,62.7 92.8,56.2 
		83.8,62.7 79.9,62.7 	"/>
	<polygon points="72,45.7 84.6,45.7 78.5,50 73,50 61.3,58.5 78.4,58.5 72.5,62.7 48.4,62.7 	"/>
	<polygon points="41.8,45.7 48,56.8 63.4,45.7 66.5,45.7 42.9,62.7 40.1,62.8 30.5,45.7 	"/>
	<path d="M131.7,45.7h14.4l-2.4,4.2l-7.3,0c0,0-3.7,6.6-5.4,9.7c-0.5,0.9-1.8,3.2-1.8,3.2h-7.1L131.7,45.7z"/>
	<polygon points="128.2,45.7 118.7,62.7 109.8,62.7 119.4,45.7 	"/>
	<polygon points="73.4,52.6 85,52.6 80.4,56 68.7,56 	"/>
	<g>
		<path d="M149.2,45.8c-0.8,0-1.4-0.3-2-0.8c-0.5-0.5-0.8-1.2-0.8-2c0-0.5,0.1-1,0.4-1.4c0.2-0.4,0.6-0.8,1-1
			c0.4-0.2,0.9-0.4,1.4-0.4c0.4,0,0.7,0.1,1.1,0.2c0.3,0.1,0.6,0.3,0.9,0.6c0.2,0.2,0.4,0.5,0.6,0.9c0.1,0.3,0.2,0.7,0.2,1.1
			c0,0.5-0.1,1-0.4,1.4c-0.2,0.4-0.6,0.8-1,1C150.2,45.7,149.7,45.8,149.2,45.8z M147.6,44.7c0.4,0.4,1,0.7,1.6,0.7s1.2-0.2,1.6-0.7
			c0.4-0.4,0.7-1,0.7-1.6c0-0.7-0.2-1.2-0.7-1.7c-0.4-0.4-1-0.7-1.6-0.7s-1.2,0.2-1.6,0.7c-0.4,0.4-0.7,1-0.7,1.6
			C146.9,43.7,147.1,44.2,147.6,44.7z M148.6,44.3h-0.4v-2.8h1.2c0.3,0,0.5,0.1,0.7,0.2s0.3,0.4,0.3,0.6c0,0.2-0.1,0.4-0.2,0.5
			c-0.1,0.1-0.3,0.2-0.5,0.3l0.8,1.1H150l-0.7-1h-0.6V44.3z M148.6,42v1h0.7c0.4,0,0.6-0.2,0.6-0.5c0-0.2,0-0.3-0.1-0.3
			c-0.1-0.1-0.2-0.1-0.4-0.1H148.6z"/>
	</g>
</g>
</svg>
