<?xml version="1.0" encoding="utf-8"?>
<!-- Generator: Adobe Illustrator 18.0.0, SVG Export Plug-In . SVG Version: 6.00 Build 0)  -->
<!DOCTYPE svg PUBLIC "-//W3C//DTD SVG 1.1//EN" "http://www.w3.org/Graphics/SVG/1.1/DTD/svg11.dtd">
<svg version="1.1" id="Layer_1" xmlns="http://www.w3.org/2000/svg" xmlns:xlink="http://www.w3.org/1999/xlink" x="0px" y="0px"
	 viewBox="0 0 213 144" enable-background="new 0 0 213 144" xml:space="preserve">
<g>
	<path fill="#002F87" d="M204,56.4c0-2.4,1.9-4.3,4.3-4.3c1.2,0,2.2,0.5,3,1.3c0.8,0.9,1.2,1.9,1.2,3c0,1.2-0.4,2.2-1.2,3
		c-0.8,0.8-1.9,1.3-3,1.3C205.9,60.8,204,58.8,204,56.4 M203.6,56.4c0,2.6,2.1,4.7,4.7,4.7c1.3,0,2.4-0.5,3.3-1.4
		c0.9-0.9,1.4-2.1,1.4-3.3c0-1.3-0.5-2.4-1.4-3.3c-0.9-0.9-2.1-1.4-3.3-1.4C205.8,51.7,203.6,53.8,203.6,56.4"/>
	<path fill="#002F87" d="M206.6,59.2h0.6V57h1.5c0.3,0,0.4,0,0.6,0.1c0.2,0.1,0.3,0.3,0.3,0.7l0.1,0.9c0,0.2,0,0.3,0,0.4
		c0.1,0.1,0.1,0.1,0.1,0.2h0.9v-0.1c-0.1-0.1-0.2-0.2-0.2-0.3c-0.1-0.1-0.1-0.2-0.1-0.4l-0.1-0.7c0-0.3-0.1-0.5-0.2-0.6
		c-0.1-0.1-0.3-0.3-0.5-0.3c0.2-0.1,0.4-0.3,0.5-0.5c0.1-0.2,0.2-0.4,0.2-0.7c0-0.6-0.2-1-0.7-1.2c-0.2-0.1-0.5-0.2-0.9-0.2h-2.2
		v5.1H206.6z M207.2,56.4v-1.7h1.6c0.2,0,0.4,0.1,0.5,0.1c0.2,0.1,0.4,0.4,0.4,0.7c0,0.4-0.1,0.6-0.3,0.7c-0.2,0.1-0.4,0.2-0.7,0.2
		C208.7,56.4,207.2,56.4,207.2,56.4z"/>
	<polygon fill="#002F87" points="19.3,62.9 0,92.8 13.2,92.8 31.7,64.2 	"/>
	<path fill="#002F87" d="M19.8,62.2c0,0,4.6-7.4,5.7-8.9c1.1-1.5,2.5-2.1,4-2.1h19.9v10.1c0,0,1-3.9,2.8-5.7c1.7-1.8,3.9-4.2,9-4.5
		h37.5v11.1C98.7,62.2,19.8,62.2,19.8,62.2z"/>
	<path fill="#002F87" d="M200.6,62.2V51.1h-40.1c-5.1,0.3-7.3,2.7-9,4.5c-1.8,1.9-2.8,5.7-2.8,5.7v0.9H200.6z"/>
	<rect x="100.6" y="51.2" fill="#002F87" width="11.2" height="11"/>
	<rect x="137.4" y="51.2" fill="#002F87" width="11.2" height="11"/>
	<path fill="#002F87" d="M148.6,66.2l-11-0.6v12.8c0,0-0.1,3.7-3.6,3.7h-19c0,0-3.2-0.3-3.2-3.7V63.8L100.7,63v19.6
		c1.8,9.4,10.4,10.1,10.4,10.1s0.9,0.1,1,0.1h25.6c0,0,10.9-0.9,10.9-11.3L148.6,66.2L148.6,66.2z"/>
	<path fill="#002F87" d="M38,92.8h52.5c9.2-1.8,10.1-10,10.1-10c0.4-2.4,0.2-4.4,0.2-4.4c-0.3-1.7-3.4-8.9-10.3-9.5
		c-4.1-0.4-40.5-3.2-40.5-3.2c0.7,3.6,2.3,5.4,3.4,6.4c2.5,2.4,6.5,3.1,6.5,3.1c1,0.1,28,2.3,28,2.3c0.9,0.1,2.5,0.3,2.5,2.4
		c0,0.3-0.2,2.1-2.3,2.1H48.9V65.5L38,64.7V92.8z"/>
	<path fill="#002F87" d="M148.7,81.9h38.9c0.9,0,1.9-0.5,1.9-0.5c0.4-0.4,0.7-1,0.7-1.7c0-2.1-1.8-2.2-2.7-2.2
		c0,0-27.4-2.2-28.3-2.3c0,0-3.8-0.6-6.3-3c-1.1-1-2.6-2.2-3.6-5.9c0,0,36.6,2.1,40.6,2.5c6.9,0.6,10.1,7.3,10.4,9.6
		c0,0,0.3,2-0.1,4.5c0,0-1.4,9.4-11.5,10h-40.1L148.7,81.9z"/>
	<path fill="#002F87" d="M204,56.4c0-2.4,1.9-4.3,4.3-4.3c1.2,0,2.2,0.5,3,1.3c0.8,0.9,1.2,1.9,1.2,3c0,1.2-0.4,2.2-1.2,3
		c-0.8,0.8-1.9,1.3-3,1.3C205.9,60.8,204,58.8,204,56.4 M203.6,56.4c0,2.6,2.1,4.7,4.7,4.7c1.3,0,2.4-0.5,3.3-1.4
		c0.9-0.9,1.4-2.1,1.4-3.3c0-1.3-0.5-2.4-1.4-3.3c-0.9-0.9-2.1-1.4-3.3-1.4C205.8,51.7,203.6,53.8,203.6,56.4"/>
	<path fill="#002F87" d="M206.6,59.2h0.6V57h1.5c0.3,0,0.4,0,0.6,0.1c0.2,0.1,0.3,0.3,0.3,0.7l0.1,0.9c0,0.2,0,0.3,0,0.4
		c0.1,0.1,0.1,0.1,0.1,0.2h0.9v-0.1c-0.1-0.1-0.2-0.2-0.2-0.3c-0.1-0.1-0.1-0.2-0.1-0.4l-0.1-0.7c0-0.3-0.1-0.5-0.2-0.6
		c-0.1-0.1-0.3-0.3-0.5-0.3c0.2-0.1,0.4-0.3,0.5-0.5c0.1-0.2,0.2-0.4,0.2-0.7c0-0.6-0.2-1-0.7-1.2c-0.2-0.1-0.5-0.2-0.9-0.2h-2.2
		v5.1H206.6z M207.2,56.4v-1.7h1.6c0.2,0,0.4,0.1,0.5,0.1c0.2,0.1,0.4,0.4,0.4,0.7c0,0.4-0.1,0.6-0.3,0.7c-0.2,0.1-0.4,0.2-0.7,0.2
		C208.7,56.4,207.2,56.4,207.2,56.4z"/>
	<polygon fill="#002F87" points="19.3,62.9 0,92.8 13.2,92.8 31.7,64.2 	"/>
	<path fill="#002F87" d="M19.8,62.2c0,0,4.6-7.4,5.7-8.9c1.1-1.5,2.5-2.1,4-2.1h19.9v10.1c0,0,1-3.9,2.8-5.7c1.7-1.8,3.9-4.2,9-4.5
		h37.5v11.1C98.7,62.2,19.8,62.2,19.8,62.2z"/>
	<path fill="#002F87" d="M200.6,62.2V51.1h-40.1c-5.1,0.3-7.3,2.7-9,4.5c-1.8,1.9-2.8,5.7-2.8,5.7v0.9H200.6z"/>
	<rect x="100.6" y="51.2" fill="#002F87" width="11.2" height="11"/>
	<rect x="137.4" y="51.2" fill="#002F87" width="11.2" height="11"/>
	<path fill="#002F87" d="M148.6,66.2l-11-0.6v12.8c0,0-0.1,3.7-3.6,3.7h-19c0,0-3.2-0.3-3.2-3.7V63.8L100.7,63v19.6
		c1.8,9.4,10.4,10.1,10.4,10.1s0.9,0.1,1,0.1h25.6c0,0,10.9-0.9,10.9-11.3L148.6,66.2L148.6,66.2z"/>
	<path fill="#002F87" d="M38,92.8h52.5c9.2-1.8,10.1-10,10.1-10c0.4-2.4,0.2-4.4,0.2-4.4c-0.3-1.7-3.4-8.9-10.3-9.5
		c-4.1-0.4-40.5-3.2-40.5-3.2c0.7,3.6,2.3,5.4,3.4,6.4c2.5,2.4,6.5,3.1,6.5,3.1c1,0.1,28,2.3,28,2.3c0.9,0.1,2.5,0.3,2.5,2.4
		c0,0.3-0.2,2.1-2.3,2.1H48.9V65.5L38,64.7V92.8z"/>
	<path fill="#002F87" d="M148.7,81.9h38.9c0.9,0,1.9-0.5,1.9-0.5c0.4-0.4,0.7-1,0.7-1.7c0-2.1-1.8-2.2-2.7-2.2
		c0,0-27.4-2.2-28.3-2.3c0,0-3.8-0.6-6.3-3c-1.1-1-2.6-2.2-3.6-5.9c0,0,36.6,2.1,40.6,2.5c6.9,0.6,10.1,7.3,10.4,9.6
		c0,0,0.3,2-0.1,4.5c0,0-1.4,9.4-11.5,10h-40.1L148.7,81.9z"/>
</g>
</svg>
