<?xml version="1.0" encoding="utf-8"?>
<!-- Generator: Adobe Illustrator 18.0.0, SVG Export Plug-In . SVG Version: 6.00 Build 0)  -->
<!DOCTYPE svg PUBLIC "-//W3C//DTD SVG 1.1//EN" "http://www.w3.org/Graphics/SVG/1.1/DTD/svg11.dtd">
<svg version="1.1" id="Layer_1" xmlns="http://www.w3.org/2000/svg" xmlns:xlink="http://www.w3.org/1999/xlink" x="0px" y="0px"
	 viewBox="0 0 213 144" enable-background="new 0 0 213 144" xml:space="preserve">
<g>
	<path fill="#4A2082" d="M64.5,129.3c-4.9-0.3-9.5-0.4-14-1c-12-1.5-23.2-5.4-32.8-13.2c-9.1-7.4-15-16.7-17-28.2
		c-1.8-9.9-0.2-19.4,4-28.4c3.6-7.8,8.8-14.4,15-20.2c10.5-9.9,23-16.2,36.9-20c6.2-1.7,12.6-2.7,19.1-3.2c7-0.5,14-0.4,20.9,0.1
		c8.7,0.7,17.4,1.8,25.9,3.7c16,3.6,31.5,8.6,46,16.5c9.6,5.2,18.5,11.3,26.5,18.8c6.4,6,11.5,12.8,14.6,21
		c2.7,6.9,3.9,14.1,2.8,21.5c-1.8,11.5-7.5,20.2-17.7,26c-5.8,3.2-11.9,5.2-18.4,6c-9.7,1.2-19.1-0.5-28.2-4.2
		c-3.5-1.4-7-3.1-10.4-4.9c-6.6-3.5-13.3-3.6-20.1-1.2c-5.8,2-11.5,4-17.4,5.8c-6,1.9-12.1,3.1-18.4,3.7
		C76.1,128.6,70.2,128.9,64.5,129.3z M172.7,97c0.2-0.1,0.4-0.2,0.6-0.3c3.3-1.3,6-3.5,7.9-6.6c2.7-4.3,3.3-9.1,2.8-14.1
		c-0.7-6.6-4-11.4-10.1-14.2c-4.4-2.1-9.1-2.6-13.9-1.8c-5,0.9-9.3,3.1-12.5,7.2c-3.6,4.7-4.3,10.2-3.4,15.8
		c1.5,8.9,8.6,15.1,17.6,15.6c1.4,0.1,2.6,0.4,3.8,1.5c1.7,1.4,3.6,2.7,5.6,3.6c3.6,1.7,7.5,2.4,11.5,1.9c2-0.3,4-0.7,6-1
		c0.6-0.1,0.8-0.4,0.9-1c0.2-1.8,0.5-3.5,0.7-5.2c0.2-1.7,0.4-3.3,0.7-5.1c-0.2,0.1-0.4,0.2-0.5,0.3c-4.8,3.2-10.1,4.4-15.8,4.1
		C173.8,97.9,173,97.8,172.7,97z M28.3,60.2c0,12.6,0,25.2,0,37.9c0.3,0,0.6,0,0.9,0c7.4,0,14.8,0.1,22.1,0c1.4,0,3-0.2,4.4-0.5
		c4.7-1.2,8.1-5,8.4-10.1c0.2-3.9-1.5-6.9-5-8.8c-0.5-0.3-0.9-0.6-1.3-1c4.1-2.1,5.6-6.2,4.9-10.2c-0.6-3-2.7-4.8-5.3-6
		c-2.1-1-4.4-1.2-6.6-1.2c-7.3,0-14.5,0-21.8-0.1C28.7,60.2,28.5,60.2,28.3,60.2z M101.9,81.6c0.1-0.4,0.2-0.7,0.1-1.1
		c-0.2-2-0.2-4-0.5-6.1c-0.6-3.8-2.2-7.2-5.1-9.9c-3.2-3-7.1-4.4-11.6-4.5c-7.9-0.2-14.5,3.9-17.4,11.3c-1.4,3.7-1.6,7.6-1.2,11.5
		c0.9,8.9,7.3,15,16.5,16c2.6,0.3,5.1,0.2,7.6-0.2c3.9-0.5,7.6-2,10.8-4.3c0.2-0.2,0.3-0.5,0.3-0.7c0-2.2,0-4.4,0-6.6
		c0-0.1-0.1-0.2-0.1-0.3c-0.2,0.1-0.3,0.2-0.4,0.3c-3.9,2.9-8.5,3.9-13.3,3.6c-3.5-0.2-6.7-1.1-8.8-4.2c-1-1.4-1.7-3-1.8-4.9
		C85.3,81.6,93.6,81.6,101.9,81.6z M115.9,97.9c0-0.4,0-0.8,0-1.1c0-7.1,0-14.3,0-21.4c0-0.4,0.1-0.9,0.3-1.1c1.1-1.5,2.2-3,3.5-4.3
		c3.1-3.1,8.9-1.9,10,2.6c0.3,1,0.5,2.1,0.5,3.1c0.1,7.1,0.1,14.3,0.1,21.4c0,0.3,0,0.6,0,0.9c3.6,0,7,0,10.5,0c0-0.3,0-0.6,0-0.9
		c0-7.8,0-15.7,0-23.5c0-1.2-0.1-2.4-0.4-3.6c-0.7-3.5-2.3-6.3-5.6-8.1c-5-2.7-11.8-2.5-16.8,2.9c-0.5,0.5-0.9,1-1.5,1.6
		c-1.1-1.7-0.2-3.5-0.6-5c-3.5,0-6.9,0-10.4,0c0,12.3,0,24.4,0,36.6C108.9,97.9,112.3,97.9,115.9,97.9z"/>
	<path fill="#4A2082" d="M172.6,80c-0.1,3.6-0.9,6.9-3.7,9.3c-3.1,2.7-8,2.3-10.9-0.6c-2.9-3-3.7-6.7-3.2-10.8
		c0.4-2.9,1.5-5.5,3.7-7.5c1.6-1.5,3.6-2,5.7-1.7c5.2,0.9,8.2,4.5,8.5,9.9C172.7,79.1,172.6,79.6,172.6,80z"/>
	<path fill="#4A2082" d="M38.3,81.9c1.5,0,2.9,0,4.3,0c2,0,4-0.1,6.1,0.1c3,0.3,4.7,2,4.2,5.1c-0.3,1.8-1.5,3-3.5,3.1
		c-3.4,0.2-6.8,0.1-10.2,0.1c-0.3,0-0.9-0.5-0.9-0.9C38.3,87,38.3,84.5,38.3,81.9z"/>
	<path fill="#4A2082" d="M38.3,68.8c0.4-0.1,0.8-0.1,1.1-0.1c3,0.1,6,0,8.9,0.2c1,0.1,1.9,0.5,2.8,1c1,0.5,1.3,1.9,1,3.1
		c-0.3,1.3-1.3,2-2.6,2.2c-1.5,0.2-3.1,0.2-4.6,0.2c-1.8,0.1-3.6,0-5.4,0c-0.9,0-1.2-0.4-1.2-1.2C38.3,72.4,38.3,70.7,38.3,68.8z"/>
	<path fill="#4A2082" d="M84.2,75.2c-2,0-3.9,0-5.9,0c-0.9,0-1.3-0.4-1-1.3c0.8-2.6,2.2-4.5,5-5.1c3.8-0.8,7.6,1.3,8.6,5.6
		c0.2,0.7-0.2,0.9-0.8,0.9C88.2,75.2,86.2,75.2,84.2,75.2z"/>
</g>
</svg>
