<?xml version="1.0" encoding="utf-8"?>
<!-- Generator: Adobe Illustrator 18.0.0, SVG Export Plug-In . SVG Version: 6.00 Build 0)  -->
<!DOCTYPE svg PUBLIC "-//W3C//DTD SVG 1.1//EN" "http://www.w3.org/Graphics/SVG/1.1/DTD/svg11.dtd">
<svg version="1.1" id="Layer_1" xmlns="http://www.w3.org/2000/svg" xmlns:xlink="http://www.w3.org/1999/xlink" x="0px" y="0px"
	 viewBox="0 0 152 103" enable-background="new 0 0 152 103" xml:space="preserve">
<rect fill="#FFFFFF" width="152" height="103"/>
<g>
	<path fill-rule="evenodd" clip-rule="evenodd" fill="#FF4517" d="M32.2,68c-1.5,0.5-2.8,1.2-4.2,1.6c-12.3,3.6-24.8-4-27.5-16.2
		c-2.6-11.9,4.8-23.6,16.8-26.2c12.6-2.7,24,5.7,26.1,17.4c0.3,1.9,0.5,3.8,0.3,5.7c0,0.4,0,0.8,0,1.2c0,4.1,0,8.2,0,12.3
		c0,3-1.9,5.6-4.8,6.3c-2.3,0.6-4.3,0-6-1.6C32.6,68.3,32.4,68.1,32.2,68z M21.9,43.4c-0.3,0.3-0.4,0.5-0.6,0.7
		c-3.5,3.5-6.9,6.9-10.4,10.4c-0.2,0.2-0.5,0.5-0.7,0.7c-1.5,2-0.6,4.9,1.8,5.6c0.5,0.1,1.1,0.2,1.6,0.2c5.5,0,11,0,16.5,0
		c0.3,0,0.6,0,1,0c2.4-0.3,3.9-2.7,2.9-4.9c-0.6-1.5-1.8-2.2-3.4-2.3c-2.6,0-5.2,0-7.8,0c-0.2,0-0.5,0-0.9,0
		c0.3-0.3,0.5-0.5,0.7-0.7c3.4-3.4,6.8-6.8,10.3-10.3c0.2-0.2,0.4-0.4,0.5-0.5c1-1.2,1.2-2.5,0.5-3.9c-0.6-1.3-1.7-2.1-3.2-2.1
		c-5.9,0-11.8,0-17.7,0c-1.4,0-2.5,0.7-3.1,2c-0.6,1.3-0.6,2.6,0.3,3.7c0.7,1,1.7,1.5,2.9,1.5c2.6,0,5.2,0,7.8,0
		C21.2,43.3,21.5,43.4,21.9,43.4z"/>
	<g>
		<g>
			<path fill="#05302B" d="M52.2,40.2h8.5l1.5-4.1H48.4c-0.3,0.2-0.6,0.3-0.8,0.5c-0.3,0.2-0.5,0.5-0.7,1v15.9
				c0.2,0.5,0.4,0.8,0.7,1c0.3,0.2,0.5,0.5,0.8,0.8h12.2l1.5-4.2l-10,0V40.2z"/>
			<path fill="#05302B" d="M78.5,36.1h-5.2v0.1h-0.1v15.1h-4.6l-0.1-15.1h-5.2v19.2h15.2L78.5,36.1z"/>
			<path fill="#05302B" d="M95,46.1c0,0,0-0.1,0-0.1c0-0.1,0-0.1,0-0.1c-0.2-0.8-0.5-1.4-0.9-1.7c-0.5-0.3-1.1-0.5-1.8-0.5l-7.1,0
				v-3.4l6.7,0h1.5c0.2-0.4,0.4-1,0.6-1.6c0.2-0.7,0.5-1.5,0.9-2.5H82.4c-0.8,0-1.4,0.2-1.8,0.5c-0.5,0.3-0.8,0.9-0.9,1.7v5.3h0
				c0,0.3,0,0.7,0,1c0,0.4,0,0.7,0,1.1c0.3,1.3,1.2,1.9,2.7,1.9h7.1l0,3.5l-9.8,0l1.5,4.1h7.1v0l4-0.1c1.5,0,2.4-0.6,2.7-1.9
				L95,46.1L95,46.1z"/>
			<polygon fill="#05302B" points="106.3,40.1 106.3,52.8 106.3,52.8 106.3,56.9 106.4,56.9 106.4,70.4 102.8,70.4 102.8,70.4 
				102.7,70.4 102.7,59.8 99.4,59.8 99.4,70.4 95.7,70.4 95.7,56.9 101.1,56.9 101.1,55.3 101.1,40.1 96.1,40.1 96.1,36.1 
				109.2,36.1 109.2,40.1 			"/>
			<path fill="#05302B" d="M125.7,38.3c-0.2-0.8-0.5-1.4-0.9-1.7c-0.5-0.3-1.1-0.5-1.8-0.5h-9.8c-0.8,0-1.4,0.2-1.8,0.5
				c-0.5,0.3-0.8,0.9-0.9,1.7c0,2.4,0,4.9,0,7.3c0,2.5,0,5,0,7.7c0.3,1.3,1.2,1.9,2.7,1.9h9.8c1.5,0,2.4-0.6,2.7-1.9
				c0-2.7,0-5.3,0-7.7C125.6,43.2,125.6,40.7,125.7,38.3z M120.2,51.1h-4.3V40.2h4.3V51.1z"/>
			<path fill="#05302B" d="M152,36L152,36l-25.1,0.1v19.2h5.2l0.1-15.1h4.6v15h0.1v0.1h5.2l0-15.1h4.7v0.7h0l0,14.4h5.2L152,36
				L152,36L152,36z"/>
		</g>
		<g>
			<path fill="#05302B" d="M57.6,62.3h-5.7v2.8H54v2.4h-3.3v-1.8h0v-4.1h0v-1.8h6l1.1-2.9H47v13.5h10.7v-2.8l0-0.1h0V62.3z"/>
			<path fill="#05302B" d="M64.3,70.4h7.6l-4.6-13.6h-3.9l-4.9,13.6h3.7l3.2-9l2,6.1h-3V70.4z"/>
			<path fill="#05302B" d="M90.4,56.9L90.4,56.9l-17.7,0.1v13.5h3.7l0-10.7h3.3v10.6h0.1v0.1h3.7l0-10.7h3.3v0.5h0l0,10.1h3.6
				L90.4,56.9L90.4,56.9L90.4,56.9z"/>
			<path fill="#05302B" d="M91.3,56.9v13.5h3.6l0-13.5H91.3z"/>
			<path fill="#05302B" d="M117.9,62.3h-5.7v2.8h2v2.4h-3.3v-1.8h0v-4.1h0v-1.8h6l1.1-2.9h-10.7v13.5h10.7v-2.8l0-0.1h0V62.3z"/>
		</g>
	</g>
	<g>
		<path fill="#FF4517" d="M134.6,57.5c-0.5-0.4-1.1-0.5-1.8-0.5L120,57v19.4h5.3v-3.9h0V68h8.1v-0.1c0.6-0.1,1-0.3,1.4-0.7
			c0.3-0.4,0.6-0.9,0.7-1.6v-6.4C135.3,58.4,135,57.8,134.6,57.5z M129.9,64.7h-4.6v-3.6h4.6V64.7z"/>
		<path fill="#FF4517" d="M141.9,61.1h8.6L152,57h-13.9c-0.3,0.2-0.6,0.3-0.8,0.5c-0.3,0.2-0.5,0.5-0.7,1v16.1
			c0.2,0.5,0.4,0.8,0.7,1c0.3,0.2,0.6,0.5,0.8,0.8h12.4l1.5-4.2l-10.1,0V61.1z"/>
	</g>
</g>
</svg>
